<mxfile host="Electron" agent="Mozilla/5.0 (Windows NT 10.0; Win64; x64) AppleWebKit/537.36 (KHTML, like Gecko) draw.io/24.2.5 Chrome/120.0.6099.109 Electron/28.1.0 Safari/537.36" modified="2025-01-20T03:17:11.628Z" etag="_wqLH9R9p4hWVofIT4mE" version="24.2.5" type="device">
  <diagram id="C5RBs43oDa-KdzZeNtuy" name="Page-1">
    <mxGraphModel dx="2941" dy="1824" grid="1" gridSize="10" guides="1" tooltips="1" connect="1" arrows="1" fold="1" page="1" pageScale="1" pageWidth="1654" pageHeight="1169" math="0" shadow="0">
      <root>
        <mxCell id="WIyWlLk6GJQsqaUBKTNV-0" />
        <mxCell id="WIyWlLk6GJQsqaUBKTNV-1" parent="WIyWlLk6GJQsqaUBKTNV-0" />
        <mxCell id="MWWJIXpzYKilEG-xOuEc-2" style="edgeStyle=orthogonalEdgeStyle;rounded=0;orthogonalLoop=1;jettySize=auto;html=1;exitX=1;exitY=0.25;exitDx=0;exitDy=0;" parent="WIyWlLk6GJQsqaUBKTNV-1" source="MWWJIXpzYKilEG-xOuEc-0" target="MWWJIXpzYKilEG-xOuEc-1" edge="1">
          <mxGeometry relative="1" as="geometry" />
        </mxCell>
        <mxCell id="MWWJIXpzYKilEG-xOuEc-0" value="&lt;p style=&quot;margin:0px;margin-top:4px;text-align:center;&quot;&gt;&lt;b&gt;Class &lt;font color=&quot;#ff0000&quot;&gt;DistributedOptimizer&lt;/font&gt;(MixedPrecisionOptimizer)&lt;/b&gt;&lt;/p&gt;&lt;hr size=&quot;1&quot; style=&quot;border-style:solid;&quot;&gt;&lt;p style=&quot;margin:0px;margin-left:4px;&quot;&gt;+ &lt;font color=&quot;#0000ff&quot;&gt;self.buffers : _ParamAndGradBuffer&amp;nbsp;&lt;/font&gt; &amp;nbsp; &amp;nbsp; &amp;nbsp; &amp;nbsp; &amp;nbsp; &amp;nbsp; &amp;nbsp; &amp;nbsp; &amp;nbsp; &amp;nbsp;# 拉平所有的buffers&lt;/p&gt;&lt;p style=&quot;margin:0px;margin-left:4px;&quot;&gt;+ &lt;font color=&quot;#0000ff&quot;&gt;self.per_model_buffers: _ParamAndGradBuffer&lt;/font&gt;&amp;nbsp; &amp;nbsp;#字典形式的&lt;/p&gt;&lt;p style=&quot;margin:0px;margin-left:4px;&quot;&gt;+ self.data_parael_group; self.data_parallel_group_idx;&lt;/p&gt;&lt;p style=&quot;margin:0px;margin-left:4px;&quot;&gt;+ self.gbuf_idx_to_model_idx_map = {} # buffer 到 model_idx 的映射&lt;/p&gt;&lt;p style=&quot;margin:0px;margin-left:4px;&quot;&gt;# ParamAndGradBuffer 实例内每个bucket切割后一个partition内param的范围&lt;/p&gt;&lt;p style=&quot;margin:0px;margin-left:4px;&quot;&gt;&lt;font color=&quot;#ff00ff&quot;&gt;+ self.gbuf_ranges = [{(para.type, grad.type) : {[&#39;param_map&#39; : {param_range_map}, {}]}, {}]&lt;/font&gt;&lt;/p&gt;&lt;p style=&quot;margin:0px;margin-left:4px;&quot;&gt;&lt;font color=&quot;#0000ff&quot;&gt;+ self.per_bucket_numel = [{}, {}]&amp;nbsp; # ParamAndGradBuffer 内每个buckets的元素个数&lt;/font&gt;&lt;/p&gt;&lt;p style=&quot;margin:0px;margin-left:4px;&quot;&gt;+ self.per_bucket_numel_unpadded = [{}, {}] # unpadded 元素的个数&lt;/p&gt;&lt;p style=&quot;margin:0px;margin-left:4px;&quot;&gt;+ self.model_param_gbuf_map = {param : (buffer_idx, (param.type, grad.type), bucket_idx)}&lt;/p&gt;&lt;p style=&quot;margin:0px;margin-left:4px;&quot;&gt;+ self.model_param_group_index_map = {param : (group_idx, group_params_idx)}&lt;/p&gt;&lt;p style=&quot;margin:0px;margin-left:4px;&quot;&gt;&lt;font color=&quot;#0000ff&quot;&gt;+ self.opt_group_ranges = [{&#39;&lt;/font&gt;&lt;font color=&quot;#ff00ff&quot;&gt;param&lt;/font&gt;&lt;font color=&quot;#0000ff&quot;&gt;&#39; : [partition_param], &#39;&lt;/font&gt;&lt;font color=&quot;#ff00ff&quot;&gt;origin_group&lt;/font&gt;&lt;font color=&quot;#0000ff&quot;&gt;&#39;:[], &#39;origin_group_idx&#39;:[]}, {}]&lt;/font&gt;&lt;/p&gt;&lt;p style=&quot;margin:0px;margin-left:4px;&quot;&gt;+ self.model_float16_groups; self.model_fp32_groups;&lt;/p&gt;&lt;p style=&quot;margin:0px;margin-left:4px;&quot;&gt;+ self.shard_float16_groups; self.shard_fp32_groups; self.shard_fp32_from_float16_groups;&lt;/p&gt;&lt;p style=&quot;margin:0px;margin-left:4px;&quot;&gt;+ self.pbuf_view_items = [(gbuf_index, dtype, bucket_idx, bucket._param_data, buf_views), (), ...]&lt;/p&gt;&lt;p style=&quot;margin:0px;margin-left:4px;&quot;&gt;&lt;font color=&quot;#ff00ff&quot;&gt;# 更新optimizer的param 为 shard 后的&lt;/font&gt;&lt;br&gt;&lt;/p&gt;&lt;p style=&quot;margin:0px;margin-left:4px;&quot;&gt;+ self.optimizer.param_groups=[g[&quot;orig_group&quot;] for g in self.opt_group_ranges]&amp;nbsp;&lt;/p&gt;&lt;p style=&quot;margin:0px;margin-left:4px;&quot;&gt;+ self.all_gather_handles=[]&lt;/p&gt;&lt;p style=&quot;margin:0px;margin-left:4px;&quot;&gt;+ self.all_gather_handles_index_to_bucket_index_map = [(gbuf_index, dtype, bucket_index), (), ...]&lt;/p&gt;&lt;p style=&quot;margin:0px;margin-left:4px;&quot;&gt;+ self.model_index_to_all_gather_handle_index_map = {model_idx : all_gather_handle_index}&lt;/p&gt;&lt;p style=&quot;margin:0px;margin-left:4px;&quot;&gt;+ self.all_gather_handle_indices = []&lt;/p&gt;&lt;p style=&quot;margin:0px;margin-left:4px;&quot;&gt;+ self.param_to_all_gather_handle_index_map = {param : all_gather_handle_index}&lt;/p&gt;&lt;hr size=&quot;1&quot; style=&quot;border-style:solid;&quot;&gt;&lt;p style=&quot;margin:0px;margin-left:4px;&quot;&gt;+ _build_gbuf_range_map(buffer);&amp;nbsp; # 处理每一个buffer，调用下面两个函数构建self.gbuf_ranges&lt;/p&gt;&lt;p style=&quot;margin:0px;margin-left:4px;&quot;&gt;+ _build_model_gbuf_range(ParamAndGradBuffer, bucket_index)&amp;nbsp; # 以dp为单位切分每一个bucket&lt;/p&gt;&lt;p style=&quot;margin:0px;margin-left:4px;&quot;&gt;# 构建subparam的range map --&amp;gt; param_range_map&lt;/p&gt;&lt;p style=&quot;margin:0px;margin-left:4px;&quot;&gt;+ _build_model_gbuf_param_range_map(Buffer.param_index_map, gbuf_world_range, bucket.offset)&lt;/p&gt;&lt;p style=&quot;margin:0px;margin-left:4px;&quot;&gt;&lt;span style=&quot;background-color: initial;&quot;&gt;+ _build_model_param_gbuf_map(self.gbuf_ranges)&amp;nbsp; # 用于构建self.model_param_gbuf_map&lt;/span&gt;&lt;br&gt;&lt;/p&gt;&lt;p style=&quot;margin:0px;margin-left:4px;&quot;&gt;+ _build_optimizer_group_ranges(self.optimizer_param_groups, self.gbuf_ranges)&lt;/p&gt;&lt;p style=&quot;margin:0px;margin-left:4px;&quot;&gt;&lt;font color=&quot;#ff0000&quot;&gt;# 在此确实切分出一份fp32的param，并将其更新到self.opt_group_range[&#39;origin_group&#39;][&#39;param&#39;]内&lt;/font&gt;&lt;/p&gt;&lt;p style=&quot;margin:0px;margin-left:4px;&quot;&gt;+ &lt;font color=&quot;#0000ff&quot;&gt;_build_model_and_main_param_groups&lt;/font&gt;(self.gbuf_ranges, self.model_param_gbuf_map, self.opt_group_ranges)&lt;/p&gt;&lt;p style=&quot;margin:0px;margin-left:4px;&quot;&gt;&lt;span style=&quot;background-color: initial;&quot;&gt;+ &lt;font color=&quot;#0000ff&quot;&gt;_copy_model_grads_to_main_grads(self)&lt;/font&gt; &lt;font color=&quot;#ff00ff&quot;&gt;# 在此完成 subparam 和 grad 的绑定&lt;/font&gt;&lt;/span&gt;&lt;br&gt;&lt;/p&gt;&lt;p style=&quot;margin:0px;margin-left:4px;&quot;&gt;&lt;font color=&quot;#0000ff&quot;&gt;+ _copy_main_params_to_model_params(self)&lt;/font&gt;&lt;/p&gt;&lt;p style=&quot;margin:0px;margin-left:4px;&quot;&gt;+ _copy_model_params_to_main_params(self) # 重新加载时才需要&lt;/p&gt;" style="verticalAlign=top;align=left;overflow=fill;html=1;whiteSpace=wrap;" parent="WIyWlLk6GJQsqaUBKTNV-1" vertex="1">
          <mxGeometry x="417.5" y="-173" width="640" height="513" as="geometry" />
        </mxCell>
        <mxCell id="MWWJIXpzYKilEG-xOuEc-1" value="&lt;div style=&quot;color: #d4d4d4;background-color: #1e1e1e;font-family: Consolas, &#39;Courier New&#39;, monospace;font-weight: normal;font-size: 14px;line-height: 19px;white-space: pre;&quot;&gt;&lt;div&gt;&lt;span style=&quot;color: #9cdcfe;&quot;&gt;param_range_map&lt;/span&gt;&lt;span style=&quot;color: #d4d4d4;&quot;&gt;[&lt;/span&gt;&lt;span style=&quot;color: #9cdcfe;&quot;&gt;param&lt;/span&gt;&lt;span style=&quot;color: #d4d4d4;&quot;&gt;] = {&lt;/span&gt;&lt;/div&gt;&lt;div&gt;&lt;span style=&quot;color: #d4d4d4;&quot;&gt;&amp;nbsp; &amp;nbsp; &lt;/span&gt;&lt;span style=&quot;color: #ce9178;&quot;&gt;&quot;gbuf_world&quot;&lt;/span&gt;&lt;span style=&quot;color: #d4d4d4;&quot;&gt;: &lt;/span&gt;&lt;span style=&quot;color: #9cdcfe;&quot;&gt;param_world_range&lt;/span&gt;&lt;span style=&quot;color: #d4d4d4;&quot;&gt;, # subparam在buffer的range  &lt;/span&gt;&lt;/div&gt;&lt;div&gt;&lt;span style=&quot;color: #d4d4d4;&quot;&gt;    # subparam在bucket的range&lt;/span&gt;&lt;/div&gt;&lt;div&gt;&lt;span style=&quot;color: #d4d4d4;&quot;&gt;&amp;nbsp; &amp;nbsp; &lt;/span&gt;&lt;span style=&quot;color: #ce9178;&quot;&gt;&quot;gbuf_world_in_bucket&quot;&lt;/span&gt;&lt;span style=&quot;color: #d4d4d4;&quot;&gt;: &lt;/span&gt;&lt;span style=&quot;color: #9cdcfe;&quot;&gt;param_world_range_in_bucket&lt;/span&gt;&lt;span style=&quot;color: #d4d4d4;&quot;&gt;,&lt;/span&gt;&lt;/div&gt;&lt;div&gt;&lt;span style=&quot;color: #d4d4d4;&quot;&gt;&amp;nbsp; &amp;nbsp; &lt;/span&gt;&lt;span style=&quot;color: #ce9178;&quot;&gt;&quot;gbuf_local&quot;&lt;/span&gt;&lt;span style=&quot;color: #d4d4d4;&quot;&gt;: &lt;/span&gt;&lt;span style=&quot;color: #9cdcfe;&quot;&gt;param_local_range&lt;/span&gt;&lt;span style=&quot;color: #d4d4d4;&quot;&gt;, # subparam在当前bucket分区的range &lt;/span&gt;&lt;/div&gt;&lt;div&gt;&lt;span style=&quot;color: #d4d4d4;&quot;&gt;&amp;nbsp; &amp;nbsp; &lt;/span&gt;&lt;span style=&quot;color: #ce9178;&quot;&gt;&quot;param&quot;&lt;/span&gt;&lt;span style=&quot;color: #d4d4d4;&quot;&gt;: &lt;/span&gt;&lt;span style=&quot;color: #9cdcfe;&quot;&gt;sub_param_range&lt;/span&gt;&lt;span style=&quot;color: #d4d4d4;&quot;&gt;, # subparam 在整个param中的range&lt;/span&gt;&lt;/div&gt;&lt;div&gt;&lt;span style=&quot;color: #d4d4d4;&quot;&gt;}&lt;/span&gt;&lt;/div&gt;&lt;/div&gt;" style="text;whiteSpace=wrap;html=1;" parent="WIyWlLk6GJQsqaUBKTNV-1" vertex="1">
          <mxGeometry x="1198" y="-114" width="540" height="140" as="geometry" />
        </mxCell>
        <mxCell id="MWWJIXpzYKilEG-xOuEc-3" value="&lt;p style=&quot;margin:0px;margin-top:4px;text-align:center;&quot;&gt;&lt;b&gt;Class &lt;font color=&quot;#ff0000&quot;&gt;MixedPrecisionOptimzier&lt;/font&gt;(MegatronOptimizer)&lt;/b&gt;&lt;/p&gt;&lt;hr size=&quot;1&quot; style=&quot;border-style:solid;&quot;&gt;&lt;p style=&quot;margin:0px;margin-left:4px;&quot;&gt;+ self.grad_scaler&lt;/p&gt;&lt;p style=&quot;margin:0px;margin-left:4px;&quot;&gt;+ self._scale_one&lt;/p&gt;&lt;hr size=&quot;1&quot; style=&quot;border-style:solid;&quot;&gt;&lt;p style=&quot;margin:0px;margin-left:4px;&quot;&gt;+ get_loss_scale()&lt;/p&gt;&lt;p style=&quot;margin:0px;margin-left:4px;&quot;&gt;+ reload_model_params(self):&lt;/p&gt;&lt;p style=&quot;margin:0px;margin-left:4px;&quot;&gt;&amp;nbsp; &amp;nbsp; &amp;nbsp; &lt;font color=&quot;#ff00ff&quot;&gt;self._copy_model_params_to_main_params()&lt;/font&gt;&lt;/p&gt;&lt;p style=&quot;margin:0px;margin-left:4px;&quot;&gt;+ _unscale_main_grads_and_check_for_nam(self)&lt;/p&gt;&lt;p style=&quot;margin:0px;margin-left:4px;&quot;&gt;+ prepare_grads(self):&lt;/p&gt;&lt;p style=&quot;margin:0px;margin-left:4px;&quot;&gt;&amp;nbsp;&lt;span style=&quot;background-color: initial;&quot;&gt;&amp;nbsp; &amp;nbsp; &amp;nbsp; &lt;font color=&quot;#ff00ff&quot;&gt;self._copy_main_params_to_model_params()&lt;/font&gt;&lt;/span&gt;&lt;/p&gt;&lt;p style=&quot;margin:0px;margin-left:4px;&quot;&gt;&lt;br&gt;&lt;/p&gt;&lt;p style=&quot;margin:0px;margin-left:4px;&quot;&gt;+ step()&lt;/p&gt;&lt;p style=&quot;margin:0px;margin-left:4px;&quot;&gt;&amp;nbsp; &amp;nbsp; &amp;nbsp; self.prepare_grads()&lt;/p&gt;&lt;p style=&quot;margin:0px;margin-left:4px;&quot;&gt;&amp;nbsp; &amp;nbsp; &amp;nbsp; self.clip_grad_norm()&lt;/p&gt;&lt;p style=&quot;margin:0px;margin-left:4px;&quot;&gt;&amp;nbsp; &amp;nbsp; &amp;nbsp; sefl.step_with_ready_grads()&lt;/p&gt;" style="verticalAlign=top;align=left;overflow=fill;html=1;whiteSpace=wrap;" parent="WIyWlLk6GJQsqaUBKTNV-1" vertex="1">
          <mxGeometry x="582.5" y="-530" width="310" height="240" as="geometry" />
        </mxCell>
        <mxCell id="MWWJIXpzYKilEG-xOuEc-4" value="Extends" style="endArrow=block;endSize=16;endFill=0;html=1;rounded=0;exitX=0.5;exitY=0;exitDx=0;exitDy=0;entryX=0.5;entryY=1;entryDx=0;entryDy=0;" parent="WIyWlLk6GJQsqaUBKTNV-1" source="MWWJIXpzYKilEG-xOuEc-0" target="MWWJIXpzYKilEG-xOuEc-3" edge="1">
          <mxGeometry width="160" relative="1" as="geometry">
            <mxPoint x="240" y="375" as="sourcePoint" />
            <mxPoint x="400" y="375" as="targetPoint" />
          </mxGeometry>
        </mxCell>
        <mxCell id="MWWJIXpzYKilEG-xOuEc-9" value="&lt;p style=&quot;margin:0px;margin-top:4px;text-align:center;&quot;&gt;&lt;b&gt;Class &lt;font color=&quot;#ff0000&quot;&gt;_ParamAndGradBuffer &lt;/font&gt;--&amp;gt; (param.dtype, grad.dtype) param的组合&lt;/b&gt;&lt;/p&gt;&lt;hr size=&quot;1&quot; style=&quot;border-style:solid;&quot;&gt;&lt;p style=&quot;margin:0px;margin-left:4px;&quot;&gt;+ self.&lt;font color=&quot;#ff00ff&quot;&gt;buckets &lt;/font&gt;= []&lt;/p&gt;&lt;p style=&quot;margin:0px;margin-left:4px;&quot;&gt;+ self.param_to_bucket = {}&lt;/p&gt;&lt;p style=&quot;margin:0px;margin-left:4px;&quot;&gt;+ self.param_index_map = {}&amp;nbsp; # param 对应buffer里的位置和bucket号&lt;/p&gt;&lt;p style=&quot;margin:0px;margin-left:4px;&quot;&gt;+ self.bucket_indices = []&amp;nbsp; &amp;nbsp; &amp;nbsp; &amp;nbsp; # 每个bucket在一个buffer中的起始和结束位置&lt;/p&gt;&lt;p style=&quot;margin:0px;margin-left:4px;&quot;&gt;+ self.numel&amp;nbsp; &amp;nbsp; &amp;nbsp; &amp;nbsp; &amp;nbsp; &amp;nbsp; &amp;nbsp; &amp;nbsp; &amp;nbsp; &amp;nbsp; &amp;nbsp; &amp;nbsp; &amp;nbsp; &amp;nbsp; # 总bucket的原始个数&lt;/p&gt;&lt;p style=&quot;margin:0px;margin-left:4px;&quot;&gt;+ self.numel_uppadded&amp;nbsp; &amp;nbsp; &amp;nbsp; &amp;nbsp; &amp;nbsp; # 未padded的总原始个数&lt;/p&gt;&lt;p style=&quot;margin:0px;margin-left:4px;&quot;&gt;&lt;font color=&quot;#0000ff&quot;&gt;+ self.param_data&lt;/font&gt;&lt;font color=&quot;#ff0000&quot;&gt;&amp;nbsp; &amp;nbsp; &amp;nbsp; # 所有param的global buffer，仅使用分布式optimizer时才使用&lt;/font&gt;&lt;/p&gt;&lt;p style=&quot;margin:0px;margin-left:4px;&quot;&gt;&lt;font color=&quot;#0000ff&quot;&gt;+ self.grad_data&amp;nbsp;&lt;/font&gt;&lt;font color=&quot;#ff0000&quot;&gt; &amp;nbsp; &amp;nbsp; &amp;nbsp; &amp;nbsp;# 所有param grad 的global buffer，切片是param.main_grad&lt;/font&gt;&lt;/p&gt;&lt;hr size=&quot;1&quot; style=&quot;border-style:solid;&quot;&gt;&lt;p style=&quot;margin:0px;margin-left:4px;&quot;&gt;&lt;span style=&quot;background-color: initial;&quot;&gt;+ reset()&lt;/span&gt;&lt;br&gt;&lt;/p&gt;&lt;p style=&quot;margin:0px;margin-left:4px;&quot;&gt;+ start_param_sync() # all-gather may for fsdp2&lt;/p&gt;&lt;p style=&quot;margin:0px;margin-left:4px;&quot;&gt;+ finish_param_sync()&lt;/p&gt;&lt;p style=&quot;margin:0px;margin-left:4px;&quot;&gt;+ &lt;font color=&quot;#0000ff&quot;&gt;start_grad_sync&lt;/font&gt;() # reduce-scatter / all-reduce&lt;/p&gt;&lt;p style=&quot;margin:0px;margin-left:4px;&quot;&gt;+ finish_grad_sync()&lt;/p&gt;&lt;p style=&quot;margin:0px;margin-left:4px;&quot;&gt;+ register_grad_ready()&lt;/p&gt;" style="verticalAlign=top;align=left;overflow=fill;html=1;whiteSpace=wrap;" parent="WIyWlLk6GJQsqaUBKTNV-1" vertex="1">
          <mxGeometry x="505.5" y="500.5" width="465" height="253" as="geometry" />
        </mxCell>
        <mxCell id="hR0UYlNkYb01HTM_rcTH-2" value="&lt;p style=&quot;margin:0px;margin-top:4px;text-align:center;&quot;&gt;&lt;b&gt;Class &lt;font color=&quot;#ff0000&quot;&gt;DistributeDataParallel&lt;/font&gt;(MegatronModule)&lt;/b&gt;&lt;/p&gt;&lt;hr size=&quot;1&quot; style=&quot;border-style:solid;&quot;&gt;&lt;p style=&quot;margin:0px;margin-left:4px;&quot;&gt;+ self.module&lt;br&gt;&lt;/p&gt;&lt;p style=&quot;margin:0px;margin-left:4px;&quot;&gt;+ self.ddp_config&lt;/p&gt;&lt;p style=&quot;margin:0px;margin-left:4px;&quot;&gt;+ self.&lt;font color=&quot;#0000ff&quot;&gt;bucket_size&lt;/font&gt;&lt;/p&gt;&lt;p style=&quot;margin:0px;margin-left:4px;&quot;&gt;+ self.&lt;font color=&quot;#0000ff&quot;&gt;param_to_buffer &lt;/font&gt;= {}&amp;nbsp; &amp;nbsp; # 每个param到ParamAndGradBuffer的对应关系&lt;/p&gt;&lt;p style=&quot;margin:0px;margin-left:4px;&quot;&gt;&lt;font color=&quot;#7ea6e0&quot;&gt;# 注意：组成buffers的param不区分optimizer group，一个buffers里可有多个buckets&lt;/font&gt;&lt;/p&gt;&lt;p style=&quot;margin:0px;margin-left:4px;&quot;&gt;&lt;font color=&quot;#330000&quot;&gt;+ &lt;/font&gt;&lt;font color=&quot;#ff00ff&quot;&gt;self.buffers &lt;/font&gt;&lt;font color=&quot;#330000&quot;&gt;= &lt;/font&gt;&lt;font color=&quot;#0000ff&quot;&gt;allocate_buffers_for_parameters&lt;/font&gt;&lt;font color=&quot;#330000&quot;&gt;(dense_params, dp_group, gr_scaler)&lt;/font&gt;&lt;/p&gt;&lt;p style=&quot;margin:0px;margin-left:4px;&quot;&gt;&lt;font style=&quot;background-color: initial;&quot; color=&quot;#330000&quot;&gt;+ &lt;/font&gt;&lt;font style=&quot;background-color: initial;&quot; color=&quot;#ff00ff&quot;&gt;self.bucket_groups&lt;/font&gt;&lt;br&gt;&lt;/p&gt;&lt;p style=&quot;margin:0px;margin-left:4px;&quot;&gt;&lt;span style=&quot;color: rgb(51, 0, 0);&quot;&gt;+ self.grad_accs&lt;/span&gt;&lt;font color=&quot;#ff00ff&quot;&gt;&lt;br&gt;&lt;/font&gt;&lt;/p&gt;&lt;hr size=&quot;1&quot; style=&quot;border-style:solid;&quot;&gt;&lt;p style=&quot;margin:0px;margin-left:4px;&quot;&gt;+ &lt;font color=&quot;#0000ff&quot;&gt;_make_param_hook&lt;/font&gt;(param, param_to_buffer); # 告诉buffer中的一个param已经ready&lt;/p&gt;&lt;p style=&quot;margin:0px;margin-left:4px;&quot;&gt;+ &lt;font color=&quot;#0000ff&quot;&gt;no_sync&lt;/font&gt;()&lt;/p&gt;&lt;p style=&quot;margin:0px;margin-left:4px;&quot;&gt;+ &lt;font color=&quot;#0000ff&quot;&gt;start_grad_sync&lt;/font&gt;()&lt;/p&gt;&lt;p style=&quot;margin:0px;margin-left:4px;&quot;&gt;+ &lt;font color=&quot;#0000ff&quot;&gt;scale_gradients&lt;/font&gt;()&lt;/p&gt;&lt;p style=&quot;margin:0px;margin-left:4px;&quot;&gt;+ &lt;font color=&quot;#0000ff&quot;&gt;finish_grad_sync&lt;/font&gt;()&lt;/p&gt;&lt;p style=&quot;margin:0px;margin-left:4px;&quot;&gt;+ &lt;font color=&quot;#0000ff&quot;&gt;zero_grad_buffer&lt;/font&gt;()&lt;/p&gt;&lt;p style=&quot;margin:0px;margin-left:4px;&quot;&gt;+ &lt;font color=&quot;#0000ff&quot;&gt;broadcast_params&lt;/font&gt;()&amp;nbsp; # 同步不同DP ranks 的 params&lt;/p&gt;&lt;p style=&quot;margin:0px;margin-left:4px;&quot;&gt;+ &lt;font color=&quot;#0000ff&quot;&gt;state_dict&lt;/font&gt;()&lt;/p&gt;&lt;p style=&quot;margin:0px;margin-left:4px;&quot;&gt;+ &lt;font color=&quot;#0000ff&quot;&gt;state_dict_for_save_checkpoint&lt;/font&gt;()&lt;/p&gt;" style="verticalAlign=top;align=left;overflow=fill;html=1;whiteSpace=wrap;" parent="WIyWlLk6GJQsqaUBKTNV-1" vertex="1">
          <mxGeometry x="496.25" y="896" width="482.5" height="294" as="geometry" />
        </mxCell>
        <mxCell id="hR0UYlNkYb01HTM_rcTH-5" value="&lt;p style=&quot;margin:0px;margin-top:4px;text-align:center;&quot;&gt;&lt;b&gt;Class &lt;font color=&quot;#ff0000&quot;&gt;_ParamAndGradBucket&lt;/font&gt;&lt;/b&gt;&lt;/p&gt;&lt;hr size=&quot;1&quot; style=&quot;border-style:solid;&quot;&gt;&lt;p style=&quot;margin:0px;margin-left:4px;&quot;&gt;&lt;br&gt;&lt;/p&gt;&lt;div style=&quot;color: rgb(204, 204, 204); background-color: rgb(31, 31, 31); font-family: Consolas, &amp;quot;Courier New&amp;quot;, monospace; font-size: 14px; line-height: 19px; white-space: pre;&quot;&gt;&lt;div&gt;&lt;span style=&quot;color: #569cd6;&quot;&gt;self&lt;/span&gt;.params_list &lt;span style=&quot;color: #d4d4d4;&quot;&gt;=&lt;/span&gt; params&lt;/div&gt;&lt;div&gt;&lt;span style=&quot;color: #569cd6;&quot;&gt;self&lt;/span&gt;.params &lt;span style=&quot;color: #d4d4d4;&quot;&gt;=&lt;/span&gt; &lt;span style=&quot;color: #4ec9b0;&quot;&gt;set&lt;/span&gt;(params)&lt;/div&gt;&lt;div&gt;&lt;span style=&quot;color: #6a9955;&quot;&gt;# Make sure there are no duplicate params.&lt;/span&gt;&lt;/div&gt;&lt;div&gt;&lt;span style=&quot;color: #c586c0;&quot;&gt;assert&lt;/span&gt; &lt;span style=&quot;color: #dcdcaa;&quot;&gt;len&lt;/span&gt;(&lt;span style=&quot;color: #569cd6;&quot;&gt;self&lt;/span&gt;.params_list) &lt;span style=&quot;color: #d4d4d4;&quot;&gt;==&lt;/span&gt; &lt;span style=&quot;color: #dcdcaa;&quot;&gt;len&lt;/span&gt;(&lt;span style=&quot;color: #569cd6;&quot;&gt;self&lt;/span&gt;.params)&lt;/div&gt;&lt;div&gt;&lt;span style=&quot;color: #569cd6;&quot;&gt;self&lt;/span&gt;.param_data &lt;span style=&quot;color: #d4d4d4;&quot;&gt;=&lt;/span&gt; param_data&lt;/div&gt;&lt;div&gt;&lt;span style=&quot;color: #569cd6;&quot;&gt;self&lt;/span&gt;.grad_data &lt;span style=&quot;color: #d4d4d4;&quot;&gt;=&lt;/span&gt; grad_data&lt;/div&gt;&lt;div&gt;&lt;span style=&quot;color: #6a9955;&quot;&gt;# The distributed optimizer needs to keep track of this bucket&#39;s offset&lt;/span&gt;&lt;/div&gt;&lt;div&gt;&lt;span style=&quot;color: #6a9955;&quot;&gt;# within the full grad_buffer.&lt;/span&gt;&lt;/div&gt;&lt;div&gt;&lt;span style=&quot;color: #569cd6;&quot;&gt;self&lt;/span&gt;.offset &lt;span style=&quot;color: #d4d4d4;&quot;&gt;=&lt;/span&gt; offset&lt;/div&gt;&lt;div&gt;&lt;span style=&quot;color: #569cd6;&quot;&gt;self&lt;/span&gt;.numel_unpadded &lt;span style=&quot;color: #d4d4d4;&quot;&gt;=&lt;/span&gt; numel_unpadded&lt;/div&gt;&lt;div&gt;&lt;span style=&quot;color: #569cd6;&quot;&gt;self&lt;/span&gt;.gradient_scaling_factor &lt;span style=&quot;color: #d4d4d4;&quot;&gt;=&lt;/span&gt; gradient_scaling_factor&lt;/div&gt;&lt;div&gt;&lt;span style=&quot;color: #569cd6;&quot;&gt;self&lt;/span&gt;.bucket_id &lt;span style=&quot;color: #d4d4d4;&quot;&gt;=&lt;/span&gt; bucket_id&lt;/div&gt;&lt;/div&gt;" style="verticalAlign=top;align=left;overflow=fill;html=1;whiteSpace=wrap;" parent="WIyWlLk6GJQsqaUBKTNV-1" vertex="1">
          <mxGeometry x="-62.75" y="482" width="377.5" height="290" as="geometry" />
        </mxCell>
        <mxCell id="hR0UYlNkYb01HTM_rcTH-7" value="&lt;p style=&quot;margin:0px;margin-top:4px;text-align:center;&quot;&gt;&lt;b&gt;Class MegatronModule(torch.nn.Module)&lt;/b&gt;&lt;/p&gt;&lt;hr size=&quot;1&quot; style=&quot;border-style:solid;&quot;&gt;&lt;p style=&quot;margin:0px;margin-left:4px;&quot;&gt;+ self.config&lt;br&gt;&lt;/p&gt;&lt;hr size=&quot;1&quot; style=&quot;border-style:solid;&quot;&gt;&lt;p style=&quot;margin:0px;margin-left:4px;&quot;&gt;+ state_dict_for_save_checkpoint(prefix, keey_vars)&lt;/p&gt;&lt;p style=&quot;margin:0px;margin-left:4px;&quot;&gt;+ shared_state_dict(prefix, sharded_offsets, metadata)&lt;/p&gt;&lt;p style=&quot;margin:0px;margin-left:4px;&quot;&gt;+ set_is_first_microbatch()&lt;/p&gt;" style="verticalAlign=top;align=left;overflow=fill;html=1;whiteSpace=wrap;" parent="WIyWlLk6GJQsqaUBKTNV-1" vertex="1">
          <mxGeometry x="585.5" y="1290" width="305" height="104" as="geometry" />
        </mxCell>
        <UserObject label="&lt;div style=&quot;color: rgb(204, 204, 204); background-color: rgb(31, 31, 31); font-family: Consolas, &amp;quot;Courier New&amp;quot;, monospace; font-weight: normal; line-height: 19px; white-space: pre;&quot;&gt;&lt;div&gt;&lt;span style=&quot;color: #569cd6;&quot;&gt;def&lt;/span&gt;&lt;span style=&quot;color: #cccccc;&quot;&gt; &lt;/span&gt;&lt;span style=&quot;color: #dcdcaa;&quot;&gt;param_hook&lt;/span&gt;&lt;span style=&quot;color: #cccccc;&quot;&gt;(&lt;/span&gt;&lt;span style=&quot;color: #d4d4d4;&quot;&gt;*&lt;/span&gt;&lt;span style=&quot;color: #9cdcfe;&quot;&gt;unused&lt;/span&gt;&lt;span style=&quot;color: #cccccc;&quot;&gt;):&lt;/span&gt;&lt;/div&gt;&lt;div&gt;&lt;span style=&quot;color: #cccccc;&quot;&gt;&amp;nbsp; &amp;nbsp; &lt;/span&gt;&lt;span style=&quot;color: #c586c0;&quot;&gt;if&lt;/span&gt;&lt;span style=&quot;color: #cccccc;&quot;&gt; &lt;/span&gt;&lt;span style=&quot;color: #9cdcfe;&quot;&gt;param&lt;/span&gt;&lt;span style=&quot;color: #cccccc;&quot;&gt;.requires_grad:&lt;/span&gt;&lt;/div&gt;&lt;div&gt;&lt;span style=&quot;color: #cccccc;&quot;&gt;&amp;nbsp; &amp;nbsp; &amp;nbsp; &amp;nbsp; &lt;/span&gt;&lt;span style=&quot;color: #c586c0;&quot;&gt;if&lt;/span&gt;&lt;span style=&quot;color: #cccccc;&quot;&gt; &lt;/span&gt;&lt;span style=&quot;color: #9cdcfe;&quot;&gt;self&lt;/span&gt;&lt;span style=&quot;color: #cccccc;&quot;&gt;.ddp_config.overlap_grad_reduce:&lt;/span&gt;&lt;/div&gt;&lt;div&gt;&lt;span style=&quot;color: #cccccc;&quot;&gt;&amp;nbsp; &amp;nbsp; &amp;nbsp; &amp;nbsp; &amp;nbsp; &amp;nbsp; &lt;/span&gt;&lt;span style=&quot;color: #c586c0;&quot;&gt;assert&lt;/span&gt;&lt;span style=&quot;color: #cccccc;&quot;&gt; (&lt;/span&gt;&lt;/div&gt;&lt;div&gt;&lt;span style=&quot;color: #cccccc;&quot;&gt;&amp;nbsp; &amp;nbsp; &amp;nbsp; &amp;nbsp; &amp;nbsp; &amp;nbsp; &amp;nbsp; &amp;nbsp; &lt;/span&gt;&lt;span style=&quot;color: #9cdcfe;&quot;&gt;param&lt;/span&gt;&lt;span style=&quot;color: #cccccc;&quot;&gt;.grad &lt;/span&gt;&lt;span style=&quot;color: #569cd6;&quot;&gt;is&lt;/span&gt;&lt;span style=&quot;color: #cccccc;&quot;&gt; &lt;/span&gt;&lt;span style=&quot;color: #569cd6;&quot;&gt;not&lt;/span&gt;&lt;span style=&quot;color: #cccccc;&quot;&gt; &lt;/span&gt;&lt;span style=&quot;color: #569cd6;&quot;&gt;None&lt;/span&gt;&lt;/div&gt;&lt;div&gt;&lt;span style=&quot;color: #cccccc;&quot;&gt;&amp;nbsp; &amp;nbsp; &amp;nbsp; &amp;nbsp; &amp;nbsp; &amp;nbsp; ), &lt;/span&gt;&lt;span style=&quot;color: #ce9178;&quot;&gt;&#39;param.grad being None is not safe when overlap_grad_reduce is True&#39;&lt;/span&gt;&lt;/div&gt;&lt;div&gt;&lt;span style=&quot;color: #cccccc;&quot;&gt;&amp;nbsp; &amp;nbsp; &amp;nbsp; &amp;nbsp; &lt;/span&gt;&lt;span style=&quot;color: #c586c0;&quot;&gt;if&lt;/span&gt;&lt;span style=&quot;color: #cccccc;&quot;&gt; &lt;/span&gt;&lt;span style=&quot;color: #9cdcfe;&quot;&gt;param&lt;/span&gt;&lt;span style=&quot;color: #cccccc;&quot;&gt;.grad &lt;/span&gt;&lt;span style=&quot;color: #569cd6;&quot;&gt;is&lt;/span&gt;&lt;span style=&quot;color: #cccccc;&quot;&gt; &lt;/span&gt;&lt;span style=&quot;color: #569cd6;&quot;&gt;not&lt;/span&gt;&lt;span style=&quot;color: #cccccc;&quot;&gt; &lt;/span&gt;&lt;span style=&quot;color: #569cd6;&quot;&gt;None&lt;/span&gt;&lt;span style=&quot;color: #cccccc;&quot;&gt; &lt;/span&gt;&lt;span style=&quot;color: #569cd6;&quot;&gt;and&lt;/span&gt;&lt;span style=&quot;color: #cccccc;&quot;&gt; (&lt;/span&gt;&lt;/div&gt;&lt;div&gt;&lt;span style=&quot;color: #cccccc;&quot;&gt;&amp;nbsp; &amp;nbsp; &amp;nbsp; &amp;nbsp; &amp;nbsp; &amp;nbsp; &lt;/span&gt;&lt;span style=&quot;color: #569cd6;&quot;&gt;not&lt;/span&gt;&lt;span style=&quot;color: #cccccc;&quot;&gt; &lt;/span&gt;&lt;span style=&quot;color: #9cdcfe;&quot;&gt;param&lt;/span&gt;&lt;span style=&quot;color: #cccccc;&quot;&gt;.grad_added_to_main_grad &lt;/span&gt;&lt;span style=&quot;color: #569cd6;&quot;&gt;or&lt;/span&gt;&lt;span style=&quot;color: #cccccc;&quot;&gt; &lt;/span&gt;&lt;span style=&quot;color: #dcdcaa;&quot;&gt;getattr&lt;/span&gt;&lt;span style=&quot;color: #cccccc;&quot;&gt;(&lt;/span&gt;&lt;span style=&quot;color: #9cdcfe;&quot;&gt;param&lt;/span&gt;&lt;span style=&quot;color: #cccccc;&quot;&gt;, &lt;/span&gt;&lt;span style=&quot;color: #ce9178;&quot;&gt;&#39;zero_out_wgrad&#39;&lt;/span&gt;&lt;span style=&quot;color: #cccccc;&quot;&gt;, &lt;/span&gt;&lt;span style=&quot;color: #569cd6;&quot;&gt;False&lt;/span&gt;&lt;span style=&quot;color: #cccccc;&quot;&gt;)&lt;/span&gt;&lt;/div&gt;&lt;div&gt;&lt;span style=&quot;color: #cccccc;&quot;&gt;&amp;nbsp; &amp;nbsp; &amp;nbsp; &amp;nbsp; ):&lt;/span&gt;&lt;/div&gt;&lt;div&gt;&lt;span style=&quot;color: #cccccc;&quot;&gt;&amp;nbsp; &amp;nbsp; &amp;nbsp; &amp;nbsp; &amp;nbsp; &amp;nbsp; &lt;/span&gt;&lt;span style=&quot;color: #9cdcfe;&quot;&gt;param&lt;/span&gt;&lt;span style=&quot;color: #cccccc;&quot;&gt;.main_grad.add_(&lt;/span&gt;&lt;span style=&quot;color: #9cdcfe;&quot;&gt;param&lt;/span&gt;&lt;span style=&quot;color: #cccccc;&quot;&gt;.grad.data)&lt;/span&gt;&lt;/div&gt;&lt;div&gt;&lt;span style=&quot;color: #cccccc;&quot;&gt;&amp;nbsp; &amp;nbsp; &amp;nbsp; &amp;nbsp; &lt;/span&gt;&lt;span style=&quot;color: #9cdcfe;&quot;&gt;param&lt;/span&gt;&lt;span style=&quot;color: #cccccc;&quot;&gt;.grad &lt;/span&gt;&lt;span style=&quot;color: #d4d4d4;&quot;&gt;=&lt;/span&gt;&lt;span style=&quot;color: #cccccc;&quot;&gt; &lt;/span&gt;&lt;span style=&quot;color: #569cd6;&quot;&gt;None&lt;/span&gt;&lt;/div&gt;&lt;div&gt;&lt;span style=&quot;color: #cccccc;&quot;&gt;&amp;nbsp; &amp;nbsp; &amp;nbsp; &amp;nbsp; &lt;/span&gt;&lt;span style=&quot;color: #c586c0;&quot;&gt;if&lt;/span&gt;&lt;span style=&quot;color: #cccccc;&quot;&gt; &lt;/span&gt;&lt;span style=&quot;color: #9cdcfe;&quot;&gt;self&lt;/span&gt;&lt;span style=&quot;color: #cccccc;&quot;&gt;.ddp_config.overlap_grad_reduce:&lt;/span&gt;&lt;/div&gt;&lt;div&gt;&lt;span style=&quot;color: #cccccc;&quot;&gt;&amp;nbsp; &amp;nbsp; &amp;nbsp; &amp;nbsp; &amp;nbsp; &amp;nbsp; &lt;/span&gt;&lt;span style=&quot;color: #9cdcfe;&quot;&gt;param_to_buffer&lt;/span&gt;&lt;span style=&quot;color: #cccccc;&quot;&gt;[&lt;/span&gt;&lt;span style=&quot;color: #9cdcfe;&quot;&gt;param&lt;/span&gt;&lt;span style=&quot;color: #cccccc;&quot;&gt;].register_grad_ready(&lt;/span&gt;&lt;span style=&quot;color: #9cdcfe;&quot;&gt;param&lt;/span&gt;&lt;span style=&quot;color: #cccccc;&quot;&gt;)&lt;/span&gt;&lt;/div&gt;&lt;div&gt;&lt;span style=&quot;color: #cccccc;&quot;&gt;&amp;nbsp; &amp;nbsp; &amp;nbsp; &amp;nbsp; &lt;/span&gt;&lt;span style=&quot;color: #c586c0;&quot;&gt;return&lt;/span&gt;&lt;span style=&quot;color: #cccccc;&quot;&gt; &lt;/span&gt;&lt;span style=&quot;color: #dcdcaa;&quot;&gt;param_hook&lt;/span&gt;&lt;/div&gt;&lt;/div&gt;" link="&lt;div style=&quot;color: #cccccc;background-color: #1f1f1f;font-family: Consolas, &#39;Courier New&#39;, monospace;font-weight: normal;font-size: 14px;line-height: 19px;white-space: pre;&quot;&gt;&lt;div&gt;&lt;span style=&quot;color: #569cd6;&quot;&gt;def&lt;/span&gt;&lt;span style=&quot;color: #cccccc;&quot;&gt; &lt;/span&gt;&lt;span style=&quot;color: #dcdcaa;&quot;&gt;param_hook&lt;/span&gt;&lt;span style=&quot;color: #cccccc;&quot;&gt;(&lt;/span&gt;&lt;span style=&quot;color: #d4d4d4;&quot;&gt;*&lt;/span&gt;&lt;span style=&quot;color: #9cdcfe;&quot;&gt;unused&lt;/span&gt;&lt;span style=&quot;color: #cccccc;&quot;&gt;):&lt;/span&gt;&lt;/div&gt;&lt;div&gt;&lt;span style=&quot;color: #cccccc;&quot;&gt;&amp;nbsp; &amp;nbsp; &lt;/span&gt;&lt;span style=&quot;color: #c586c0;&quot;&gt;if&lt;/span&gt;&lt;span style=&quot;color: #cccccc;&quot;&gt; &lt;/span&gt;&lt;span style=&quot;color: #9cdcfe;&quot;&gt;param&lt;/span&gt;&lt;span style=&quot;color: #cccccc;&quot;&gt;.requires_grad:&lt;/span&gt;&lt;/div&gt;&lt;div&gt;&lt;span style=&quot;color: #cccccc;&quot;&gt;&amp;nbsp; &amp;nbsp; &amp;nbsp; &amp;nbsp; &lt;/span&gt;&lt;span style=&quot;color: #c586c0;&quot;&gt;if&lt;/span&gt;&lt;span style=&quot;color: #cccccc;&quot;&gt; &lt;/span&gt;&lt;span style=&quot;color: #9cdcfe;&quot;&gt;self&lt;/span&gt;&lt;span style=&quot;color: #cccccc;&quot;&gt;.ddp_config.overlap_grad_reduce:&lt;/span&gt;&lt;/div&gt;&lt;div&gt;&lt;span style=&quot;color: #cccccc;&quot;&gt;&amp;nbsp; &amp;nbsp; &amp;nbsp; &amp;nbsp; &amp;nbsp; &amp;nbsp; &lt;/span&gt;&lt;span style=&quot;color: #c586c0;&quot;&gt;assert&lt;/span&gt;&lt;span style=&quot;color: #cccccc;&quot;&gt; (&lt;/span&gt;&lt;/div&gt;&lt;div&gt;&lt;span style=&quot;color: #cccccc;&quot;&gt;&amp;nbsp; &amp;nbsp; &amp;nbsp; &amp;nbsp; &amp;nbsp; &amp;nbsp; &amp;nbsp; &amp;nbsp; &lt;/span&gt;&lt;span style=&quot;color: #9cdcfe;&quot;&gt;param&lt;/span&gt;&lt;span style=&quot;color: #cccccc;&quot;&gt;.grad &lt;/span&gt;&lt;span style=&quot;color: #569cd6;&quot;&gt;is&lt;/span&gt;&lt;span style=&quot;color: #cccccc;&quot;&gt; &lt;/span&gt;&lt;span style=&quot;color: #569cd6;&quot;&gt;not&lt;/span&gt;&lt;span style=&quot;color: #cccccc;&quot;&gt; &lt;/span&gt;&lt;span style=&quot;color: #569cd6;&quot;&gt;None&lt;/span&gt;&lt;/div&gt;&lt;div&gt;&lt;span style=&quot;color: #cccccc;&quot;&gt;&amp;nbsp; &amp;nbsp; &amp;nbsp; &amp;nbsp; &amp;nbsp; &amp;nbsp; ), &lt;/span&gt;&lt;span style=&quot;color: #ce9178;&quot;&gt;&#39;param.grad being None is not safe when overlap_grad_reduce is True&#39;&lt;/span&gt;&lt;/div&gt;&lt;div&gt;&lt;span style=&quot;color: #cccccc;&quot;&gt;&amp;nbsp; &amp;nbsp; &amp;nbsp; &amp;nbsp; &lt;/span&gt;&lt;span style=&quot;color: #c586c0;&quot;&gt;if&lt;/span&gt;&lt;span style=&quot;color: #cccccc;&quot;&gt; &lt;/span&gt;&lt;span style=&quot;color: #9cdcfe;&quot;&gt;param&lt;/span&gt;&lt;span style=&quot;color: #cccccc;&quot;&gt;.grad &lt;/span&gt;&lt;span style=&quot;color: #569cd6;&quot;&gt;is&lt;/span&gt;&lt;span style=&quot;color: #cccccc;&quot;&gt; &lt;/span&gt;&lt;span style=&quot;color: #569cd6;&quot;&gt;not&lt;/span&gt;&lt;span style=&quot;color: #cccccc;&quot;&gt; &lt;/span&gt;&lt;span style=&quot;color: #569cd6;&quot;&gt;None&lt;/span&gt;&lt;span style=&quot;color: #cccccc;&quot;&gt; &lt;/span&gt;&lt;span style=&quot;color: #569cd6;&quot;&gt;and&lt;/span&gt;&lt;span style=&quot;color: #cccccc;&quot;&gt; (&lt;/span&gt;&lt;/div&gt;&lt;div&gt;&lt;span style=&quot;color: #cccccc;&quot;&gt;&amp;nbsp; &amp;nbsp; &amp;nbsp; &amp;nbsp; &amp;nbsp; &amp;nbsp; &lt;/span&gt;&lt;span style=&quot;color: #569cd6;&quot;&gt;not&lt;/span&gt;&lt;span style=&quot;color: #cccccc;&quot;&gt; &lt;/span&gt;&lt;span style=&quot;color: #9cdcfe;&quot;&gt;param&lt;/span&gt;&lt;span style=&quot;color: #cccccc;&quot;&gt;.grad_added_to_main_grad &lt;/span&gt;&lt;span style=&quot;color: #569cd6;&quot;&gt;or&lt;/span&gt;&lt;span style=&quot;color: #cccccc;&quot;&gt; &lt;/span&gt;&lt;span style=&quot;color: #dcdcaa;&quot;&gt;getattr&lt;/span&gt;&lt;span style=&quot;color: #cccccc;&quot;&gt;(&lt;/span&gt;&lt;span style=&quot;color: #9cdcfe;&quot;&gt;param&lt;/span&gt;&lt;span style=&quot;color: #cccccc;&quot;&gt;, &lt;/span&gt;&lt;span style=&quot;color: #ce9178;&quot;&gt;&#39;zero_out_wgrad&#39;&lt;/span&gt;&lt;span style=&quot;color: #cccccc;&quot;&gt;, &lt;/span&gt;&lt;span style=&quot;color: #569cd6;&quot;&gt;False&lt;/span&gt;&lt;span style=&quot;color: #cccccc;&quot;&gt;)&lt;/span&gt;&lt;/div&gt;&lt;div&gt;&lt;span style=&quot;color: #cccccc;&quot;&gt;&amp;nbsp; &amp;nbsp; &amp;nbsp; &amp;nbsp; ):&lt;/span&gt;&lt;/div&gt;&lt;div&gt;&lt;span style=&quot;color: #cccccc;&quot;&gt;&amp;nbsp; &amp;nbsp; &amp;nbsp; &amp;nbsp; &amp;nbsp; &amp;nbsp; &lt;/span&gt;&lt;span style=&quot;color: #9cdcfe;&quot;&gt;param&lt;/span&gt;&lt;span style=&quot;color: #cccccc;&quot;&gt;.main_grad.add_(&lt;/span&gt;&lt;span style=&quot;color: #9cdcfe;&quot;&gt;param&lt;/span&gt;&lt;span style=&quot;color: #cccccc;&quot;&gt;.grad.data)&lt;/span&gt;&lt;/div&gt;&lt;div&gt;&lt;span style=&quot;color: #cccccc;&quot;&gt;&amp;nbsp; &amp;nbsp; &amp;nbsp; &amp;nbsp; &lt;/span&gt;&lt;span style=&quot;color: #9cdcfe;&quot;&gt;param&lt;/span&gt;&lt;span style=&quot;color: #cccccc;&quot;&gt;.grad &lt;/span&gt;&lt;span style=&quot;color: #d4d4d4;&quot;&gt;=&lt;/span&gt;&lt;span style=&quot;color: #cccccc;&quot;&gt; &lt;/span&gt;&lt;span style=&quot;color: #569cd6;&quot;&gt;None&lt;/span&gt;&lt;/div&gt;&lt;br&gt;&lt;div&gt;&lt;span style=&quot;color: #cccccc;&quot;&gt;&amp;nbsp; &amp;nbsp; &amp;nbsp; &amp;nbsp; &lt;/span&gt;&lt;span style=&quot;color: #c586c0;&quot;&gt;if&lt;/span&gt;&lt;span style=&quot;color: #cccccc;&quot;&gt; &lt;/span&gt;&lt;span style=&quot;color: #9cdcfe;&quot;&gt;self&lt;/span&gt;&lt;span style=&quot;color: #cccccc;&quot;&gt;.ddp_config.overlap_grad_reduce:&lt;/span&gt;&lt;/div&gt;&lt;div&gt;&lt;span style=&quot;color: #cccccc;&quot;&gt;&amp;nbsp; &amp;nbsp; &amp;nbsp; &amp;nbsp; &amp;nbsp; &amp;nbsp; &lt;/span&gt;&lt;span style=&quot;color: #9cdcfe;&quot;&gt;param_to_buffer&lt;/span&gt;&lt;span style=&quot;color: #cccccc;&quot;&gt;[&lt;/span&gt;&lt;span style=&quot;color: #9cdcfe;&quot;&gt;param&lt;/span&gt;&lt;span style=&quot;color: #cccccc;&quot;&gt;].register_grad_ready(&lt;/span&gt;&lt;span style=&quot;color: #9cdcfe;&quot;&gt;param&lt;/span&gt;&lt;span style=&quot;color: #cccccc;&quot;&gt;)&lt;/span&gt;&lt;/div&gt;&lt;br&gt;&lt;div&gt;&lt;span style=&quot;color: #cccccc;&quot;&gt;&amp;nbsp; &amp;nbsp; &amp;nbsp; &amp;nbsp; &lt;/span&gt;&lt;span style=&quot;color: #c586c0;&quot;&gt;return&lt;/span&gt;&lt;span style=&quot;color: #cccccc;&quot;&gt; &lt;/span&gt;&lt;span style=&quot;color: #dcdcaa;&quot;&gt;param_hook&lt;/span&gt;&lt;/div&gt;&lt;/div&gt;" id="vJZv4tJLtog93d9NBvm4-3">
          <mxCell style="text;whiteSpace=wrap;html=1;" parent="WIyWlLk6GJQsqaUBKTNV-1" vertex="1">
            <mxGeometry x="1197" y="380" width="580" height="270" as="geometry" />
          </mxCell>
        </UserObject>
        <mxCell id="vJZv4tJLtog93d9NBvm4-4" value="register" style="endArrow=open;endSize=12;dashed=1;html=1;rounded=0;exitX=1;exitY=0.25;exitDx=0;exitDy=0;entryX=0;entryY=0.5;entryDx=0;entryDy=0;" parent="WIyWlLk6GJQsqaUBKTNV-1" source="hR0UYlNkYb01HTM_rcTH-2" target="vJZv4tJLtog93d9NBvm4-5" edge="1">
          <mxGeometry width="160" relative="1" as="geometry">
            <mxPoint x="1020" y="1100" as="sourcePoint" />
            <mxPoint x="1180" y="1100" as="targetPoint" />
          </mxGeometry>
        </mxCell>
        <mxCell id="vJZv4tJLtog93d9NBvm4-6" style="edgeStyle=orthogonalEdgeStyle;rounded=0;orthogonalLoop=1;jettySize=auto;html=1;" parent="WIyWlLk6GJQsqaUBKTNV-1" source="vJZv4tJLtog93d9NBvm4-5" target="vJZv4tJLtog93d9NBvm4-3" edge="1">
          <mxGeometry relative="1" as="geometry" />
        </mxCell>
        <UserObject label="&lt;div style=&quot;color: #cccccc;background-color: #1f1f1f;font-family: Consolas, &#39;Courier New&#39;, monospace;font-weight: normal;font-size: 14px;line-height: 19px;white-space: pre;&quot;&gt;&lt;div&gt;&lt;span style=&quot;color: #c586c0;&quot;&gt;for&lt;/span&gt;&lt;span style=&quot;color: #cccccc;&quot;&gt; &lt;/span&gt;&lt;span style=&quot;color: #9cdcfe;&quot;&gt;param&lt;/span&gt;&lt;span style=&quot;color: #cccccc;&quot;&gt; &lt;/span&gt;&lt;span style=&quot;color: #c586c0;&quot;&gt;in&lt;/span&gt;&lt;span style=&quot;color: #cccccc;&quot;&gt; &lt;/span&gt;&lt;span style=&quot;color: #9cdcfe;&quot;&gt;self&lt;/span&gt;&lt;span style=&quot;color: #cccccc;&quot;&gt;.module.parameters():&lt;/span&gt;&lt;/div&gt;&lt;div&gt;&lt;span style=&quot;color: #cccccc;&quot;&gt;&amp;nbsp; &amp;nbsp; &lt;/span&gt;&lt;span style=&quot;color: #c586c0;&quot;&gt;if&lt;/span&gt;&lt;span style=&quot;color: #cccccc;&quot;&gt; &lt;/span&gt;&lt;span style=&quot;color: #9cdcfe;&quot;&gt;param&lt;/span&gt;&lt;span style=&quot;color: #cccccc;&quot;&gt;.requires_grad:&lt;/span&gt;&lt;/div&gt;&lt;div&gt;&lt;span style=&quot;color: #cccccc;&quot;&gt;&amp;nbsp; &amp;nbsp; &amp;nbsp; &amp;nbsp; &lt;/span&gt;&lt;span style=&quot;color: #6a9955;&quot;&gt;# Expand so we get access to grad_fn.&lt;/span&gt;&lt;/div&gt;&lt;div&gt;&lt;span style=&quot;color: #cccccc;&quot;&gt;&amp;nbsp; &amp;nbsp; &amp;nbsp; &amp;nbsp; &lt;/span&gt;&lt;span style=&quot;color: #9cdcfe;&quot;&gt;param_tmp&lt;/span&gt;&lt;span style=&quot;color: #cccccc;&quot;&gt; &lt;/span&gt;&lt;span style=&quot;color: #d4d4d4;&quot;&gt;=&lt;/span&gt;&lt;span style=&quot;color: #cccccc;&quot;&gt; &lt;/span&gt;&lt;span style=&quot;color: #9cdcfe;&quot;&gt;param&lt;/span&gt;&lt;span style=&quot;color: #cccccc;&quot;&gt;.expand_as(&lt;/span&gt;&lt;span style=&quot;color: #9cdcfe;&quot;&gt;param&lt;/span&gt;&lt;span style=&quot;color: #cccccc;&quot;&gt;)&lt;/span&gt;&lt;/div&gt;&lt;div&gt;&lt;span style=&quot;color: #cccccc;&quot;&gt;&amp;nbsp; &amp;nbsp; &amp;nbsp; &amp;nbsp; &lt;/span&gt;&lt;span style=&quot;color: #6a9955;&quot;&gt;# Get the gradient accumulator function.&lt;/span&gt;&lt;/div&gt;&lt;div&gt;&lt;span style=&quot;color: #cccccc;&quot;&gt;&amp;nbsp; &amp;nbsp; &amp;nbsp; &amp;nbsp; &lt;/span&gt;&lt;span style=&quot;color: #9cdcfe;&quot;&gt;grad_acc&lt;/span&gt;&lt;span style=&quot;color: #cccccc;&quot;&gt; &lt;/span&gt;&lt;span style=&quot;color: #d4d4d4;&quot;&gt;=&lt;/span&gt;&lt;span style=&quot;color: #cccccc;&quot;&gt; &lt;/span&gt;&lt;span style=&quot;color: #9cdcfe;&quot;&gt;param_tmp&lt;/span&gt;&lt;span style=&quot;color: #cccccc;&quot;&gt;.grad_fn.next_functions[&lt;/span&gt;&lt;span style=&quot;color: #b5cea8;&quot;&gt;0&lt;/span&gt;&lt;span style=&quot;color: #cccccc;&quot;&gt;][&lt;/span&gt;&lt;span style=&quot;color: #b5cea8;&quot;&gt;0&lt;/span&gt;&lt;span style=&quot;color: #cccccc;&quot;&gt;]&lt;/span&gt;&lt;/div&gt;&lt;div&gt;&lt;span style=&quot;color: #cccccc;&quot;&gt;&amp;nbsp; &amp;nbsp; &amp;nbsp; &amp;nbsp; &lt;/span&gt;&lt;span style=&quot;color: #9cdcfe;&quot;&gt;grad_acc&lt;/span&gt;&lt;span style=&quot;color: #cccccc;&quot;&gt;.register_hook(&lt;/span&gt;&lt;span style=&quot;color: #9cdcfe;&quot;&gt;param_hook&lt;/span&gt;&lt;span style=&quot;color: #cccccc;&quot;&gt;)&lt;/span&gt;&lt;/div&gt;&lt;div&gt;&lt;span style=&quot;color: #cccccc;&quot;&gt;&amp;nbsp; &amp;nbsp; &amp;nbsp; &amp;nbsp; &lt;/span&gt;&lt;span style=&quot;color: #9cdcfe;&quot;&gt;self&lt;/span&gt;&lt;span style=&quot;color: #cccccc;&quot;&gt;.grad_accs.append(&lt;/span&gt;&lt;span style=&quot;color: #9cdcfe;&quot;&gt;grad_acc&lt;/span&gt;&lt;span style=&quot;color: #cccccc;&quot;&gt;)&lt;/span&gt;&lt;/div&gt;&lt;/div&gt;" link="&lt;div style=&quot;color: #cccccc;background-color: #1f1f1f;font-family: Consolas, &#39;Courier New&#39;, monospace;font-weight: normal;font-size: 14px;line-height: 19px;white-space: pre;&quot;&gt;&lt;div&gt;&lt;span style=&quot;color: #c586c0;&quot;&gt;for&lt;/span&gt;&lt;span style=&quot;color: #cccccc;&quot;&gt; &lt;/span&gt;&lt;span style=&quot;color: #9cdcfe;&quot;&gt;param&lt;/span&gt;&lt;span style=&quot;color: #cccccc;&quot;&gt; &lt;/span&gt;&lt;span style=&quot;color: #c586c0;&quot;&gt;in&lt;/span&gt;&lt;span style=&quot;color: #cccccc;&quot;&gt; &lt;/span&gt;&lt;span style=&quot;color: #9cdcfe;&quot;&gt;self&lt;/span&gt;&lt;span style=&quot;color: #cccccc;&quot;&gt;.module.parameters():&lt;/span&gt;&lt;/div&gt;&lt;div&gt;&lt;span style=&quot;color: #cccccc;&quot;&gt;&amp;nbsp; &amp;nbsp; &lt;/span&gt;&lt;span style=&quot;color: #c586c0;&quot;&gt;if&lt;/span&gt;&lt;span style=&quot;color: #cccccc;&quot;&gt; &lt;/span&gt;&lt;span style=&quot;color: #9cdcfe;&quot;&gt;param&lt;/span&gt;&lt;span style=&quot;color: #cccccc;&quot;&gt;.requires_grad:&lt;/span&gt;&lt;/div&gt;&lt;div&gt;&lt;span style=&quot;color: #cccccc;&quot;&gt;&amp;nbsp; &amp;nbsp; &amp;nbsp; &amp;nbsp; &lt;/span&gt;&lt;span style=&quot;color: #6a9955;&quot;&gt;# Expand so we get access to grad_fn.&lt;/span&gt;&lt;/div&gt;&lt;div&gt;&lt;span style=&quot;color: #cccccc;&quot;&gt;&amp;nbsp; &amp;nbsp; &amp;nbsp; &amp;nbsp; &lt;/span&gt;&lt;span style=&quot;color: #9cdcfe;&quot;&gt;param_tmp&lt;/span&gt;&lt;span style=&quot;color: #cccccc;&quot;&gt; &lt;/span&gt;&lt;span style=&quot;color: #d4d4d4;&quot;&gt;=&lt;/span&gt;&lt;span style=&quot;color: #cccccc;&quot;&gt; &lt;/span&gt;&lt;span style=&quot;color: #9cdcfe;&quot;&gt;param&lt;/span&gt;&lt;span style=&quot;color: #cccccc;&quot;&gt;.expand_as(&lt;/span&gt;&lt;span style=&quot;color: #9cdcfe;&quot;&gt;param&lt;/span&gt;&lt;span style=&quot;color: #cccccc;&quot;&gt;)&lt;/span&gt;&lt;/div&gt;&lt;div&gt;&lt;span style=&quot;color: #cccccc;&quot;&gt;&amp;nbsp; &amp;nbsp; &amp;nbsp; &amp;nbsp; &lt;/span&gt;&lt;span style=&quot;color: #6a9955;&quot;&gt;# Get the gradient accumulator function.&lt;/span&gt;&lt;/div&gt;&lt;div&gt;&lt;span style=&quot;color: #cccccc;&quot;&gt;&amp;nbsp; &amp;nbsp; &amp;nbsp; &amp;nbsp; &lt;/span&gt;&lt;span style=&quot;color: #9cdcfe;&quot;&gt;grad_acc&lt;/span&gt;&lt;span style=&quot;color: #cccccc;&quot;&gt; &lt;/span&gt;&lt;span style=&quot;color: #d4d4d4;&quot;&gt;=&lt;/span&gt;&lt;span style=&quot;color: #cccccc;&quot;&gt; &lt;/span&gt;&lt;span style=&quot;color: #9cdcfe;&quot;&gt;param_tmp&lt;/span&gt;&lt;span style=&quot;color: #cccccc;&quot;&gt;.grad_fn.next_functions[&lt;/span&gt;&lt;span style=&quot;color: #b5cea8;&quot;&gt;0&lt;/span&gt;&lt;span style=&quot;color: #cccccc;&quot;&gt;][&lt;/span&gt;&lt;span style=&quot;color: #b5cea8;&quot;&gt;0&lt;/span&gt;&lt;span style=&quot;color: #cccccc;&quot;&gt;]&lt;/span&gt;&lt;/div&gt;&lt;div&gt;&lt;span style=&quot;color: #cccccc;&quot;&gt;&amp;nbsp; &amp;nbsp; &amp;nbsp; &amp;nbsp; &lt;/span&gt;&lt;span style=&quot;color: #9cdcfe;&quot;&gt;grad_acc&lt;/span&gt;&lt;span style=&quot;color: #cccccc;&quot;&gt;.register_hook(&lt;/span&gt;&lt;span style=&quot;color: #9cdcfe;&quot;&gt;param_hook&lt;/span&gt;&lt;span style=&quot;color: #cccccc;&quot;&gt;)&lt;/span&gt;&lt;/div&gt;&lt;div&gt;&lt;span style=&quot;color: #cccccc;&quot;&gt;&amp;nbsp; &amp;nbsp; &amp;nbsp; &amp;nbsp; &lt;/span&gt;&lt;span style=&quot;color: #9cdcfe;&quot;&gt;self&lt;/span&gt;&lt;span style=&quot;color: #cccccc;&quot;&gt;.grad_accs.append(&lt;/span&gt;&lt;span style=&quot;color: #9cdcfe;&quot;&gt;grad_acc&lt;/span&gt;&lt;span style=&quot;color: #cccccc;&quot;&gt;)&lt;/span&gt;&lt;/div&gt;&lt;/div&gt;" id="vJZv4tJLtog93d9NBvm4-5">
          <mxCell style="text;whiteSpace=wrap;html=1;" parent="WIyWlLk6GJQsqaUBKTNV-1" vertex="1">
            <mxGeometry x="1267" y="890.5" width="440" height="160" as="geometry" />
          </mxCell>
        </UserObject>
        <mxCell id="oFJtpMSm3LVa0i9B1DGQ-3" value="&lt;div style=&quot;color: rgb(204, 204, 204); background-color: rgb(31, 31, 31); font-family: Consolas, &amp;quot;Courier New&amp;quot;, monospace; font-weight: normal; line-height: 19px; white-space: pre;&quot;&gt;&lt;div style=&quot;&quot;&gt;&lt;font style=&quot;font-size: 18px;&quot;&gt;&lt;span style=&quot;color: rgb(220, 220, 170);&quot;&gt;@&lt;/span&gt;&lt;span style=&quot;color: rgb(220, 220, 170);&quot;&gt;dataclass&lt;/span&gt;&lt;/font&gt;&lt;/div&gt;&lt;div style=&quot;&quot;&gt;&lt;font size=&quot;3&quot;&gt;&lt;span style=&quot;color: rgb(86, 156, 214);&quot;&gt;class&lt;/span&gt;&lt;span style=&quot;color: rgb(204, 204, 204);&quot;&gt; &lt;/span&gt;&lt;span style=&quot;color: rgb(78, 201, 176);&quot;&gt;ModelParallelConfig&lt;/span&gt;&lt;span style=&quot;color: rgb(204, 204, 204);&quot;&gt;:&lt;/span&gt;&lt;/font&gt;&lt;/div&gt;&lt;/div&gt;" style="text;whiteSpace=wrap;html=1;" vertex="1" parent="WIyWlLk6GJQsqaUBKTNV-1">
          <mxGeometry x="1520" y="1319" width="238" height="50" as="geometry" />
        </mxCell>
        <mxCell id="oFJtpMSm3LVa0i9B1DGQ-5" value="&lt;div style=&quot;color: rgb(204, 204, 204); background-color: rgb(31, 31, 31); font-family: Consolas, &amp;quot;Courier New&amp;quot;, monospace; font-weight: normal; line-height: 19px; white-space: pre;&quot;&gt;&lt;div style=&quot;&quot;&gt;&lt;font style=&quot;font-size: 18px;&quot;&gt;&lt;span style=&quot;color: rgb(220, 220, 170);&quot;&gt;@&lt;/span&gt;&lt;span style=&quot;color: rgb(220, 220, 170);&quot;&gt;dataclass&lt;/span&gt;&lt;/font&gt;&lt;/div&gt;&lt;div style=&quot;&quot;&gt;&lt;font size=&quot;3&quot;&gt;&lt;span style=&quot;color: rgb(86, 156, 214);&quot;&gt;class&lt;/span&gt;&lt;span style=&quot;color: rgb(204, 204, 204);&quot;&gt; &lt;/span&gt;&lt;span style=&quot;color: rgb(78, 201, 176);&quot;&gt;TransformerConfig&lt;/span&gt;&lt;span style=&quot;color: rgb(204, 204, 204);&quot;&gt;(&lt;/span&gt;&lt;span style=&quot;color: rgb(78, 201, 176);&quot;&gt;ModelParallelConfig&lt;/span&gt;&lt;span style=&quot;color: rgb(204, 204, 204);&quot;&gt;):&lt;/span&gt;&lt;/font&gt;&lt;/div&gt;&lt;/div&gt;" style="text;whiteSpace=wrap;html=1;" vertex="1" parent="WIyWlLk6GJQsqaUBKTNV-1">
          <mxGeometry x="1000" y="1318" width="400" height="50" as="geometry" />
        </mxCell>
        <mxCell id="oFJtpMSm3LVa0i9B1DGQ-6" value="Extends" style="endArrow=block;endSize=16;endFill=0;html=1;rounded=0;exitX=1;exitY=0.5;exitDx=0;exitDy=0;entryX=0;entryY=0.5;entryDx=0;entryDy=0;" edge="1" parent="WIyWlLk6GJQsqaUBKTNV-1" source="oFJtpMSm3LVa0i9B1DGQ-5" target="oFJtpMSm3LVa0i9B1DGQ-3">
          <mxGeometry width="160" relative="1" as="geometry">
            <mxPoint x="410" y="1300" as="sourcePoint" />
            <mxPoint x="570" y="1300" as="targetPoint" />
          </mxGeometry>
        </mxCell>
        <mxCell id="oFJtpMSm3LVa0i9B1DGQ-8" value="" style="shape=image;verticalLabelPosition=bottom;labelBackgroundColor=default;verticalAlign=top;aspect=fixed;imageAspect=0;image=data:image/png,iVBORw0KGgoAAAANSUhEUgAAAjUAAADQCAYAAAD/A5CAAAAAAXNSR0IArs4c6QAAAARnQU1BAACxjwv8YQUAAAAJcEhZcwAADsMAAA7DAcdvqGQAAHQiSURBVHhe7b0PXBVV/v//WuWPOAReMEAEVPx7McSrkIi0EqhUsiFa6KKym3zwI5W0brif0k8brV+tz0rbhm66umpp9VM+Jdliu9hStCFqoEgWVyExAUlIQLAr8kc/v3Nm5sK9l3vhXkAFfD99jMycOTNzzpm5c17zPu9zzs/c3Nz+DwRBEES/xMnJCYIgYNCgQXIIQfR/bt26BY1Gg9raWtjY2MihXUOihiAIgiCIPoslooakPUEQBEEQAwISNQRBEARBDAh+NmPGQ9T8RBAEQRBEn8TKykpe6xqy1BAEQRAEMSAgUUMQBEEQxICARA1BEARBEAMCEjUEQRAEQQwIyFGYIAiCIAg9Bg8eDAcHewiCHWxtbWBtbdXjAR75gHotLa1oamqGRtOIhoafcPPmTXmvaSxxFCZRQxAEQRCECBcQ99+vgELhKIfcXurq6vHjj3VobW2VQzpCvZ8IgiAIgrAILmTGjfO6Y4KG09vXHOzhMSpZXh+4uEfixVdW4ZcRszCy5nOcuiSH95CAuD9g/X88jvAHhuD00XP4SQ4nCIIgiP6Eq+twuLg442c/+5kccufg17zvPmn+Mo3muhzajiXNXveGpWbmeHjYsr+D7sOEadOksB4zDQET7hPXrEaNR5C4RhADHfaB8Jc38JcXI+VtYPKvXsJf/rIZLy5wlUNuE77L8Yctb+DN30XCTQ7CoiR27U14+kF5u7/w4EpsZuW4eVXvvI8CVm3qn+VwNzHy7EjlmISF8rYl9OTYuw0XNM7Ow+StuwdPA09LT7g3RM2xElQ0sb+ttfj21CkprMecQl7xNXHt+vlC5IprRpgUiedf3YxX43tLTBFE32KolbW8dpuxs8IduhJB3DPwZp++IGi08LT0pCnq3hA1lYfw6m/X4JnnNuDtr+SwXiBv1+/xzDNrsPZPn+KyHNYBB1e4OVjBarC8TRADDOl3sBavflQlh5jDeCx87iVsTmq3+HTJV3vw4uo1eO6Ph0z/3nqTh5bjpVdfQvwAt35MXPA0/rD5uX5pYSB6BnfAdXV1lrf6DjxNljgH60KOwgRB3AXug5u7E4b2ZdOLC/8gsRvw1iEHNw849+kbQdwueC8ns/xVYl/Gtm3b8PqaOXJAR5a/vI3FeR2/CZMDOmUOfvO66fPxNPG0dYcBLWqkNs43dBYTbc5y+zZvIpoYvhIvbZbjb9mEl1aFwFuOJiH7FOguOv4FEtPw9P/I+36lxFAWMtR3uf4x/bTtlSAIguj/8HFozGvmYQLEr82LzThhv8HULqKIsHivM3G0bdsiTOQVYyfwtPE0WsqAHqeGi5pf+9rJW5xGfPvOOrxl2ATFRQ0THzbXG5n6sIOh0evyl69hw36taZ2LmhB4yFsiFdl45tVD8gaHi5rlmGwvbxrlErKeScFBeYsg+hZ2TOAvQXSIj9h8yrleU4Iv363C5OeC4aH7zHOHy1An/d/W0CmIXhWJgFFOGCr/oK7XfI2M3+/B9Q6/S4mKz9bg1Q/l387VbLye74ql85RwYy8/aZ/023M6sw9rt8u+cW3X3oDc0SuxMGA0nPnL8lYrGi4X4V/v70HWBSmq9rerd7wWvTwY+Y1zflLj7f/agTxxww5To3Wux7he8z3yDu5A2mn2HmnjPgQsWYFfTG+P11B5Av/8twMiligBY2npjGHTEL1iPgLGsHLln6S3ruHyiSP4t/1jiPaF/j3QxtW9B1Vq/HPfDqlM5Pdeh7ql7d52fAbQeg0VRz/Am2lfo2MfFRNYdI8YXaVbRHsv9+O92oew+KGRcBjU/n4fOmEulj75EB5wuw9WYjmxa5Ufx4GtH+K0NuFGnlupzqjt8G72nvsUloa2l0NrQxW++Ww/dn76vbjNMXWsLu1xPkB93BLMmeIK8ZS3GlFz4SQObufpc0X071/AbNda5G3ZgLfPSse28dDT2LxkPFpP7cCLu9RyoOVw0TBixP3yVidwK42fA64PZTet+EM8/8a/5B3tcCvNVIfr4FHOffA8/pwl7zBgzprXscjhNBJe+QG/eX0RPCuMn0/LDz/8KI5jQ+PUyORtXyf6vPDl7TO6LxrjWHFBc/0SvtjDfQR+j7eOVoEPB+Q2Nljnh38Ir8rnfOaZbFTIofqcwlv/Jcd5Ry3++K+zl5c2LdJCgobou3gvegZPPz4FboNq8O2xHHzxxQlcaPJA+DOB7T2PTKLEr194CrPH2KH2ND82B7ln2G9J4Qzeel9eyMO+xmXuvH+1RNzPl69038/2U/DrECt8tVP6Db/6oRxuAqtpz+CpQGfUF0nnyrvQiKHuU7Bw5UoEdai1u6IYX/E0iR0BWnH5lHTOL44Wolzcb4egVS8ifvZo2F1VI5fvO1aCRvvRmB2fxCotMRKDx1uLXz80Go7NTPDweF+cwpWh0xH9xHjYyLHMZugMPP1fyzF7rANaL5yS0nSqBkOnLcJCZcfmo4UJLC67Bw3qE2Lc3LO1sHFVsjJ5CgE8QkUhvmThpyv5W+4azonpY8uJYr6XiZ7l+A/2DAy/VdGW9orm++Axezme60ZPN3PvUZfp1sV9HpZOqsDBl/g7VStOpuHXcY9hKnvYyuR7l1feAodRwXjqWZ2ec2bizcTPcwv0y+HyIFdMXfAMnn+0ozjvGiu4rVqBhRPYbyGPn+8Evr0MOLN65qnnIuGNKmSc+p49eU7wnjlePqad8BljWH1UhYJ/dF/QcPhIwV2zHC/PdMC5T06jQQ7pABM9QQ7n8I9CwxjsWG6VeXm5vA38643nmaDZJ291jXlp1GdAixqLab2ErLdSkJbPX2bX8O37askh0cEZk/lfgrgXcI/E4p+PhFWDGu+98hreevdDpKXtx1sbN2Dn1w0dLJkdmBaIiaxCuX6WfQDs4cd+iPe2v4YXX/or+DfZ5WOfsLBC1LSwjZ8uifv5klUkHi0xzBrl+99CZnHXHyOiRWFMAw789+/xuny9t//0e7x5tJb9dpV45MmOFUPnqJHF01TBX9ItqDkjnTPt4xPS+4BV9lG+9+F60X68vHEH3uP73n0Lv9+Sg8utTlCFz+Wx2uK1VmTjzfVv4m0eL20fXl//B2QydWT+t6dEQGwkJju0ouKzv+DFP+2T0rTnTbz4h09RZuxsV0pw8E/rsGH7fjHue1tS8HExEzAO4xEwk+2vPIGPWfhp8UY0oEJMH1s+01aWjSg/ugcv6qT91bdOoIZdy2Oy7oeeOXRxjxbr3KOu0q3DUMcGfJmyH3lX5QCZ6xUnsFP3Wn/cgdwfWZmPUuLnliRc/i2gMkfvHr76yn58+5MVEx1PYKIc1Xxc2e+jEK//l/5v6yB71q08ghH1KEt/xkmcZ1/DzuOC9eueoY/hAU8rJmq/RkalHNZN+NQHXbH85SA4FP/DpOWlXfT8Wfxt9zbmpNEQEjW6XGY/Jl0zKEHcgwwNVsLDqhWlR/chV6+NoRGn/7+irnseXW4QrZNDPfwwW7en6NVrpr/2DPmpAt+ekdfNoKbwkEFagdL3j6OU1YXOHlMsrIA7J4x9PQ9FLU6nn9BvgrnwCc5Vs4rz/jGiRSEoYDSLdw3fZBxCqRRD5ho+PlpifvONyAwEjGFfrVeL8PGH7U0eIlc/wTEj4u/gzrf0m3XY/cuq4M3odnB0l0I65at9SH3foJnpQjEu81FGu/Gh1+k9cm+/Rxalu7oC/+pQkKfw9pb97c1MIt+j+DIvIwcMf0AKMQe3kCnib+H8sQ/17+H1Ezhdxs7n7NqND14j5+N5zFSLgtHNewbbzsGx8+z8w8YgqM3yx35Tj/rA26oR5098YuHz0xE+l1Nn8KYi0QJjsnmIO/t2Jnr24ZWEBIssM4Z0lUZjkKghCEKPyU4O7P8GXD5lxEpyvVVsku2Uyk+QlV+LVvYFHr3xDby6fiUWznS1TFg01OC0vNo1jbh8wVh38ho03mB/etnS6ig6ejghaL2u4z9fNmE2r3TtHeDJ/vCeU2i6jFJj4uym/Nds3OBoz6rD6gv4Vg7RpcXY+Ya6IujR5Uj8XRJeenUz3vzTZvwldKS80zwcfEIQveo5vLj+JWxmx7+5pStfQVNYcI8sSPf1qxXGK/dhSoQtWYnnf/cC/vA//BxvGPXj6gpPfg+Z0Ji4yPBev4GlPnyfE9ws7vJfg8vH5VVdzjawUmLZd5AayPKY8G3AfZgwSzvGmSsiJrNy+Ol7HPtSDuoBnfZ6CvsNHp2ATi0wc9Y8ionoTPT0HEtGEtZCouYOYWPf98YCIAjTtKDFwKRvPo3I3bMBL/5hP744yyoyN1bBLHsBr/6O+wuYya1Wy75EOxMJTY3mW4jMpakKp0X/CmNLPnvVy7S0ihVVb9HcaubZxkTixf/3ApZGTIOnvRVafyzBV8ePI6uoVo7QFXYIiv8DXn0mErOVzrBqaUT5meM4+uUpVHR3Phhz7pGl6b7Jm870GTrzKby6gQnpWeMxfAgr/4qvcfR4DvIudvdOXEPpl8bus7ScNu5Y2Qnsw6CTh7u1Rd555hMUsJ/P0LGBmM233R/GA65M7xd/KTur9ww+Y7ZxluPlJyai4Zhph1/uR7NoQgNyn789zU5aTKfRNCRqbjcVkvq28gzEry39WiWIu0ADq2AAZ7gFStt6uNux6s48rledQNqW1/Dif72Fj7m/wKgQLF5k+ddy19jB0dPIed0nwI1bNxout4sMxlAHbkfRJ+B+J3mtazRMqMDWGtdzJH+Njku2aE0R49m7Yoyxph5WYVvmLXCdCRqW9vvHGHV0dWDp0SUgfAY8bBvx7bvrsPb3r+HVP0m+P//8saMIMMrQeZg99T60Vubg9ed+jw1/TEGq6J9SjHo5imWYd496nG52nUdCpsDhVhW++NNaJqxT8OoWyf+oWCNHsQDpt2CHlmrDe6xdPkGuxb4tJqw7oSPFe1tfo21elB2Gh3rA7yFg8qM+7FfZcwdhLS38+TTCnDVTxXS4zeRdr7VLkBg2dMIitv5HvCZ28XZDUNt+tswUY2DiE2xdxzm4J5hKY2cMYFGjM1YMWyTTox0m/0ob1s1xYng3QPmcf9F2+/QIaQvrMJdLZSFKa9hfKycEsK9VPh5Oj65PELeZc99WsSrUCmNnLjKwrNyHsCeniD2YOmXofXDQVe/XS5D51fei5cXOwaCjtIMTpsqrPcHDN9Jg3As7Oa2tKPs2Rw6rh4b3uLp/JMJ04w4NwcyxpsRWRz+OL89WiD1TpkbN6PQj5UuxucVIvKHjsfTn44259nZCDi5wZ6b7p2DhTP20Dp2wBLMn6J9NajZpwJVCXevEaET5mOq15ABn3VfXJCcWAjRfrdDz/RgaOh1jutX8ZN49sjzdhoyHM0/4jVpU6PrlsHvsP9rUPTbNufwKlhpjv4WeYIcxM0PE8m1ntPxM1KI0v0QOYz+dz0pQ1mqHsdP4PWYisxcchLU0NTXLa/qIPZS4L4zekiv60l0v/pCt/w4vPG+4ny3HxBg49wFb74EfjS6m0tgZA3iW7hEImOsHF5OfQ9dw4ZNciJp35HTMm3o/rBu+xyc5ut90k/DQ/NFwaL6C0/86CfFZ8gnC/DH6j6MuLdVf49P8H+QtDjv2+yaMHD0SwwVbDGqbAFXn+gTRl7hUgfseCMQ4z9F4cNYkuA33wITJ/ngkJhoP/t8V1Dk4YKjub0X8Tdjhx8Is5PEZ8FW/RvLzkQga5Qo374mYzI59PJRVXja1OP1+Os6IzVpX4RkQBu/7nTFypAPcfOYhyPsETp2Vf7c3DH+LHOn3aKf7GxOvPRQNN93x84fZcU4jWFr9WGW5FA952aK14t94e883qBMjf49bXrMw1XMElEG+UlzVQ1i4JBj3aWoxVLBuzwPnvgfwMHsvON8/CQpnDwSG+mPwV1/jYnEVhvr5Y+LYKQhtKx8fTH7wYSxcGIVZTlnIYT/sFvUNjHzID54eDyBYNQouI0ZDya8X/RhGaqpw04Gpgw7vC1O0Qt3sjoemesBzShCme90vlu3UhyLxywh3XPvhFhzuQ1v66zxVmM3K3+PB9vv3eGwU3G5dw9Chtmi4kCmmkXN1lArzxgzH8JHucHCdhEeCxuLY4QpMftgHI9zHtl8r9An8asZQ/HTDjok0nXdiV1hwj8xPt5FnQaQK9/nMxmT3ERjXVuYPY/HSBzH0epM4jkrbPTZ8bhkj/cMw1bWx/d1cfQ6NXg9i6rjxCJqtwmg3V4yZxO41u4+PLIjE4xPqkXVKun6HYx98Cq+u+xUef2AITh89B95qJ8VpRaP1Awh/aCycXbyglPM4WcHk3JlD2PbJJbTZpVpKYDN+NnzHesBpSBPOZ25HTpm8r4fwge34zNjm4YeQCE/Y1qhx5Li+i3MbfiGI8LRFTdERHBcFJe/SnYAl/k44/MXXYpR2vBEY7gPHhk7Ox6itrceNG000S7eEzlgxRhedcWK+2oG1PExvAD2OPCZN24BbjA9TjJyrfTE6kNaFbOzc+Hs8t1o3Lo1TQ/RVqnDwj3/BwVNVuG4/GgGzgzH7ISUca45jz5slXfuIsE/k8jorDJ88A7PFY6fASVOCzJ0peK/t67kRB/d/itIGK7hNZXFmuMKuyxObogXlH+9AZoUdJj/EzjV7BiYqGnH51CG8yX7Tuq/MvJ27cfAMy9fQkVK+ZnigNW8PXjM2jtVX+5CeL5VBEIs7VdEi++Z8j4Nv7sDHuuXDF18PWF/9Grltr4BT2LlhD744Xyv6FfFzzA7wAIoPYWeWub4tOny1Bxt25oiWXzdfqWwfHMVO9/Fu/Itbg3W4vH+/mM9mB+39Gw+rMx8ipcNYIuzb+sMPkHn+Gqxcp4hl5zaE29Ry8Lf3clDRYN12ran31yBr+5Gue78Zxbx7ZEm6TfHFrv344uI12GjL3M8ZV7J34J/dsnA0Inf7Zrz95feoGeSKyTN52tkSMB7Db1bgWJ6sDC2iFnn/8yG+anGT0jd7GjwG1aL0C3Z/txv0qGN8kV2CBisrWF2vQGEvOAhraWjornPUnaM7aRzQIwoTBEEQdxkjI/feq5gz6nAHfJ/Cq6umMI3csxGEjcFHFO7JjNi3Ez6SMB9RmGPJiMJ3XdTweZQ6DEdulBtoxRDz2qH1hjPv2yx88Q2EmVcAoknSvGnnaAoGgug3DHWFt5dDJ7/tFtSXfY/LnfSYuSuYm+5HSdRo6Y6omb16E6InNeCLja8hrZf8abRwsTBunFe3uk7fTnivp+++K0Nrq+QoTKKGRA2JGoLoL5iag6mN9jmN+hTmptuTRI0Wi0XN0Mfw/Ktz4VX+KV5M6fmAe8Ywew6oO4h2zict/UrUEARBEAMYan5qw1xRE/CrpzG18RqGT58GjyFV+OLPryFNb5Tl3sXVdTicnXWH/7571NRcRVXVFXlLgia0JAiCIIh+SouNG6aKDsRVyNv/5m0VNBwuIriYuNsYEzSWQpYagiAIgiDEpihXV+c77mPDfWiqqmr0mpx0IUsNQRAEQRAWwUUFd9A1JS5uB719TbLUEARBEAShBx+cz8HBHoJgB1tbG3HG7J5acLhFhk99wEcK1mgaxXFobt7senZXchQmCIIgCGJAYJGocXNzI1FDEARBEESfxMbG/OlfyaeGIAiCIIgBAYkagiAIgiAGBCRqCIIgCIIYEJCoIQiCIAhiQECOwgRBEARxDyF113aAIAiws7ODtbX1HRlwT+rS3YLGxkZoNBo0NDSY1aXbEkdhEjUEQRAEcQ/Au0a7uLjAyclJDrn71NbWorq6um1GbmOQqCEIgiAIog2FQoERI0bc8SkQzIFbcH744QfU1dXJIfpQl25DRsUh9X8zkHFoH9Y9LIcRBEEQxD2Am5sbRo4c2ScFDYeni6ePp7On9D9R83AyDmQwgaKzHHgpRN5pgnl+8LZjfwcr4BfcRVyCIAjizjNoPOY/k4SkFcFwkYMswikQsb9NwuooJWzlIEISNMOHD5e3+jY8nT0VNveGpeZIIUob2d+WKuTlZEthPSTihV04kJ6KOHmbIAiC6AHWVj0TIzZWGCyvEhK8yam/CBotPL083d2lf/vUcKvN8/7AiRQs3tA7YsVc4rZkIGpMKdIjErFLDiMIghjoOD4wH5EPWSFv2yGo5TCi78GdgidMmNBnm5w6g/vYFBcXtzkPDwyfGsEPq97Yh11r50GQg4jbiDAPye/sw8ZFSjmAIAiiI7Yu7nARbGH+FIPE3YD3cjIlaEKXPYtnnzVYVi6ASt4PtrZgpf7+lVHte40hnXMlFkyVAzpFOr+pc/J08/R3h75pqZkUhY0vxsHPGagr2IVNL6Ub/yLowlIT8tIBJM3QlUQa5L++GMmfy5t6CPCLfg6rfhEAT4W1FKQpR/6H27E5rZAdyYhPRUakt7jLFJoOaVEg5Ol1WD5bCVc5KS11pch860VsPyaeVcZIvIYqfPfFLiT/NVe6vpzfqkNrUeiTjKjxLGJNLlKezof/GwkIcbdGS0k61q3ZJZZXmzVp8X5Y/78EhHsrYM3ts+z6GQbXF6bEInl9NJRCC8ozNyNpi3xNgiAIHVxC4xE7rR6ZKWk4I4cRfQs+Do1SafoDlQuQcZqj2JFeIIcYMHUBlo65iPe0+9n2ymAP4JKJY+T9NmhGRc4OfHRaDjekLZ5Es6nzyajVanEcG0ssNYPt7e2T5fU+gTAzEanrn8QEBw3Uaa8g6c/ZqJT3dWBMCJ4McmcFnYsP/v29HNjO6NlPIshDtzBaUHnsA2R3jArPp17H//xyChR2Oq2yNo5w9xsDq/f/AbHYpz+KmEmdt/W16KVFibg3UhEX6Ap7nWQMtlNggqcV3v+H9mYKmPfSX7DmYU/9eLb2uH/iQ5gz9gqO/Ps8WuT82ij8oPKS0zHUCWNnTcMD7kPEzcHOXnD6QcrjtMdioFTYwG1OGPxG2mGwVrTz68+cDrvjLF/1UlBLVSE+/ccVuP88AH5+IXhsmhVKjhaiqkXaTxDEPY5bGOJXLcKMEfxd44hxQUEI4ov7NeQWVYtiJ2HROFwrbITvE0uw6JGQtn2wcYHqkUWIenQuQh5ixwTOgN9oAbUXLqCu7R3jgrD4BCzylo8R8UV0UiyChnyHwp8mIGrJLzE/LFg+3grVxWWobxu7rT3uqQvyJ5lvNJJig2BXyj5MJ0Qh+sn5mMOvP8MPo62rUVRWD72vem06I1g6g3m8yfD4vyu4NjEa8YvYO7P0FC78JMc1oC3/ud/D/qEoLFjwaNu1xjnfRMX5y2hkF7OdHoM1S8Mx8Wff4nR5k3y0Fi+EJ8Qjasog5BaUyWGWM2zYMHFwPeOo4BfoBeF6OU6evSyHGXD5LM7o7mPbt0ZOxZj72YfzybMwPCp0zhw4DWpmYgpoKDsJU6dVzfw5xtw6h61/K4b71C7SwGhubsaNGzdEkWYufar5SbloI7avnwdPqyrkvrUKa/fKFpJukr1hMSIiIsQl5UTnZ5o3zRvWqEL2xgQsFo9ZjsQt6SisvCbHYOxMbDtf+gUewH1qpG3tomul8WQ/0Ijx1lwxIP/dTUhYzOIsTsCmnUdQWitH4jy2DnEzmEgR4yVjOT8Xi5f6SamYf8WMKCwfJUXlKFxdUXciFcv/Xs62BLi626D872uRnMP7+AtwGidGkxGgULSg6sReJP+KnfdXKThSwd4i1t4IetxTjiOjOYKUuHXY9XUdhEnRSE5dhwhneR9BEPc2dWrkfJaF49/zirgGaraexZeTupWvAP+o2bDKex8pKSlI+UCy5fg+Houwibao+SZHPCbn2xpYjVRh4ZIQs3o6WQ0PwYpl/kBJtnj88Qs3IIwMRPQifzOci63gHLwCS6ezw3N4mo+jtFGA+4xoLJ6uc/Qgd4Qt5+l0xI3i41Le8ish+EcjcrK9HKlrXEJjEDkJKDvBr5WDgkssTBmGmIW+rHSApoIClDQDzuN9mTQ0YKIKPixSZWGeHNA9+EjBvY1CYF/c1xukD3xdwpbCZ2gF8s4b1rGhWMqbrpaFyttAQfoObH33M3mra7qTjz4iagTMW7sLm57yg6KuELtejMOmT4wPwnO7uNbEPxecoJwzE+PEcqxDaeYurF+5vpuOwJ6ICuBCSYP8txKRvD8X5fyea8qReygViS+3nzUq2IeVQAvUH/J4+ezKDBbvCDtuXwE/yBM+83igjKYQB/90BHW35E+cqqPY9Vc18muMlVkLEzxMNG1IY/vZZk02Ug9IYtHVW/ekWtRIX7cKmzKZYHINwqrtqVg1pfd/IARB9DOaKqE+VYDi2htsQ4Mytl7AlwuyuVeEfQVd/BiZ3+mGAa0/nsHBv+5EGhMU/JjjmXtxWM3EkUIJX3c5UicIHo4oPbATB7+UrpmTvhfZ3IQ/0hcBHZSBIQK8HEtxYNdB5IhpzsHBfdmovAW4+wa0CQuXkPlQKZpQ9ulu7DnMxAiP++Vh7Hk7k33ummsp8MKU4fnYsTMNWSf4tZg4StuGtG80sB09B3Mmsii31Cg4x97Aw8fD12BgX6XSG4ObS1BQYGjBsQw+9YFpFOD6RNNgutmnA1y4DGtGxTeGgoQJF6WAiq8+6ih2eoHO82GcPiFqlKtTkDjbFdaNauz9zXqkn5V33EHS/pYOtcYarjNisfFABvZt34gk9hXR/Y5l/nDlBzeokf2poYLVx+k+7sNTjrPvdoyX8W0ZkyVMX7i1j6+j+eZTpOtE1Xyfj3x5vSPNqCo28Ej6vJz9SBkmPf00yN2SgOf/zoSNnTciXnkVsWa8eAiCuNdhYuc8/3rSR/1FJkoNXm+lZfwtJMDZHGtwRT6y9PwQNCi5yK8zBLZmfHOVncwSRUwbmhKUcWv5EFvResKbvnzHMnlTW4CsMwYJ1ZxBjrrzd3g7TSj6qkD8aNSl7NgZ1DBh5O4pvUjLCotRzwTg+Mk6mR/kC1/vwdCcK4BaN63dgM/l1BUKpY4jsI41RYsqamX7/hE/YOtWQ18Z7uzLPsgv5ZnwofkM723dapFlxhBz8mFInxA16i1JSP2iCi12SsS+tRmxk+Qdd5Kze7F28XIk7zyCwoo62I/wQ8iyJOz731TEdSs91nzYhF6j+VazvHYnEOD3n6l4/ReeQGMpMl5+EXtNOjYRBEFoqUGtMReJQbZwnxiM8KiFiFmxGqufWYOkcC95Z9fUX7kkr7VT38ClgzmiqB41HdJUj3ruG2PvzG1LDFc4M03TVFnGctCR1lum5yXSpwrVxlxh6utFoSMMkxN7+TTUTFQ5T5ra1vxmq/KF16B6FBd235dGS+fduGWx0bYUoW6Yj0HvJ7mpSBvnhxEdxI8qKgAeqEBeJ46+PaU73dH7SPOTBkc2x2HdnkLUCUpEv7oL6x7rvo2k+9Qh/1Aq1q9ajqiYBGw/xoWWNyJio+T9hghQmOzlVoE6/qNx8MSULkSR1PTliUnLDD85BERN8WLyqAWXz+fKYT1HWDaJXQ1ouabr2KNFiagN27HxF97s95mL7asSsf1rc79SCIK412k1tDIIvliYsBox8wPg7WCFG1VFyDuWjcwzWmfgvkNnkyqaS4f863CziTfdcWqQV8i+FB0nQCVqO1v4TnQHatU4bdpv1mz4OC/mw0ROTgWabTzgEyYHGZL1Hraq64Bh46Qu22FLMWukBkU7bk+zkxbL8iHRR0SNhPrD9Vi18QjKW10R9PR2bI71k02Dt5sQrPvLNiQ/NQ9KD/mKmp9Q9M1lcPuItV3HGU1rr4mNQgh4Mhr+Rr8UcvH191wMuGLeK6lYFe4tN2Up4B+ZiNRX2sciPnz6OyZbrKFclIJEbTzBE/OeS0Es92dp+Q55fxejdgvr+3WuvSQZqYuUoq9PUU66GNqGEITE7ZsQp1JAczYNyYmbkGHss4UgCMJMXGYEwtuuHgX738C2d9Jw8HAWjp8qwJkqbQXfF2gVxYjg4m7U8XiIjdS7tGsc4WJslP/R7qwmAK7Wtgs5yWFYgLeSqRqnANG3iDsI98Yrt6VF9rc0l9MNHZrMOlCjYfWhDQRnFRaM5TWKAj7a5im+KHmYDTyC9S06PcHifDD6lKjhaI6lIuGlXSisEaCM3ojtL0XIFbIEH3umbd6n5/1F0SPMSGoLS42X4nGhkvx++/xQ0ng1Avyf14bpT3Fgo/CE/6JEbN6uPf8+di4uqlqgPrFfjtXOka+5EGFn5OO7vNN+Hd15qDJe24V8sUOSNyJWp2KffN7k+Hnw1tFJmnd3I+MCO5s1EzLaeAe2IXGup2ilKf1kN9K6bSwR4Berc+1l/nC1BupO7MKmT+QonEmx2Lx7HeZ5AOWZm7AiaS8KyUBDEIRRHOFs5uj7zo7cFbfeoFmKvYt9zG9+uv2UouwH9sddhWAmLvRwDESwj7kTODhiwnRvA7diltcgX9jeqkGJWseB+pYaxWU3IYxTwn+qEs694CCspbGRzwtkAVMdWCqboelMUTkL4jg0mpoCfLRDt/lKXrglh+2vyGHrPfCj0cXifDD6nKgROZuO9U+vR0ZJHZpvNIvWkttLNt78awbUVRq0aMc8uNkCTZUaGZtXYO3+jrW7Zn8yNv9dDXaIaTRHkPybFGQUVUGjIzjF876vK5TU2PVCMvbmlOuM2SDHY9dP3Nl7g5HzAf3Un6QgccMRfWX+Yy00N+pQuGcdEmjgPYIgTFD9I6+YHeE7NwSqaYGInN35KOSlZdwhzwvBv56P4GkqdkwwFsavhK9NXzIDNyH/83zU33KEakkCokMDWTpVCAyNRvwKX7RWGLwR3UIQb3TyzHq0ui3E08vCEdiWVz4wKttzOhM5Bi3+6lNF0NhNwMzJjr3iIKxFo+nkDR621GAk31As5QPiXf2uzeE3dNlSFqoL7+WkQLNJp2BjdOzSbSmd5sME/XvuJ6JTpBGFOxtFmSAIwlIEKOfH4JGJjuKAnppvDmLbP0s7GWlYgHdoJML93CFwE8bNepTlZuLD64FYE+6FsswUpIkH8MH3YqGqy2wb30YaUC8cjqf2YudnBj44fGA9veONxBXjOKLg3Z3IMvBV8X0iCeGjy/TTO1yF+fMDMcFZEPN2s7YMeV8cRvGoGJY3tJ+Hi5oYfwy5cBg70tVMErHUa/OfehzC4+GY6SWVz01NNYqPHcbh08ZEnDOCVzyFQCcNzqRtQ2bPfYRFOh1RmIkaqamoHcORfXnPp1kjdQeu5cMUbcV7WfKGMcTzCjojCnNR4wPF1SIjlhvec2oWXH7s/RGFSdQMYEjUEARB9Bz3OQmImdqK/Ld3IvuKHGhA96aPkEUNjmPP7pxe8afR4u7uDienjv6g/YXa2lpUVkrdbgfGhJYEQRAEcddxhreXADRX45IJQdNtvPzFAfh6y0FYl+rq6m71HuoL8HTz9HcHEjUEQRAEYQLBNwwqJjyaLhShRA7rLZTTfCD0ooOwLrx7+g8/cO/n/gdPd3e711PzE0EQBEH4RCIhwBZl5WWovMpFhgCXSXwaB0fgJzUO7TmMkk60h9nNT26BCFc2QTPMH4Fj7VH2rx1IO337umawOh7Dh5vZVa0PcOXKFVy+rO8ARc1PBEEQBGEJtZdQxZua/IIRFhrGlkD4OLei7FQm9u7uXNBYROsQeE0PQ+AYK1QeO3BbBQ2HCwQuFPoDxgSNpZClhiAIgiAGOAqFAiNGjOjW1AO3G+5Dw5uc6uqMTcpsmaWGRA1BEARB3ANYWVnBxcWlT/WK4r2cuFNwZz40JGoIgiAIgjAKH8fGwcEBgiDAzs5OnA37TlhwuEWGT33ARwrmA+s1NDSI49B0BYkagiAIgiAGBOQoTBAEQRDEPQeJGoIgCIIgBgQkagiCIAiCGBCQqCEIgiAIYkBAooYgCIIgiAEB9X4iCIIgiHsI6tJNEARBEES/hgbfIwiCIAii33OvTJNAPjUEQRAEMYBxc3PDyJEj+6Sg4fB08fTxdPYUstT0aeKQmhEF7wvpiFi9Sw6zgIeTceB5fwjyJkdzIgWLN2TLWwRBEH2EQeMxPyESysbj2Ls7B9VysNk4BSL218FwvHAYO9LV6K1Jtfs7XCgMHz5c3ur7GJupmyw1uqjisHlfOvatD5EDCIIgiD6HtRVs5dVuYWOFwfIqIcGbnPqToOHw9PJ0d5eBL2qGecJLYQ2be7Gh7fNkLI6IQARfXs+HRg4mCILoLo4PzEcst6jI271GkxoH/5KClO5YaTiXc7DnTynYQlYaEe4UzH1o+iM83Tz93YF8agiCIAizsXVxh4tgi+5VOcSdgvdyMuVDE7rsWTz7rMGycgFU8n6wtQUr9fevjGrfawzpnCuxYKoc0CnS+U2dk6ebp7879B2fGucQrPrvOIR7K2DdwYaoQf7ri5H8ubxpGLelDuUn/o7tW9JQKJojQpD8fhL8Hfi6KUqRHpEIizxVZB+VqkNrUeiTjKjxAlCTi5Sn8+H/RgJC3K3RUpKOdWt2QS0eIMAv+jms+kUAPBXWYggaWVpPHkTqa+lyHC1G4vLu+zx/hj41gh+if7sKi/w9IfD9NzWoOvc59v3PdmTXSFE6IKcd5FNDEEQPcAmNR+y0emSmpOGMHEb0Lfg4NEqlaVsaFyDjNEexI71ADjFg6gIsHXMR72n3s+2VwR7AJRPHyPtt0IyKnB346LQcbkhbPIlmU+eTUavV4jg2lvjUDLa3t0+W1+8iIVi3IwlhI+0w2KiwbEHlsQ+Q/T1bFeYheesahOjGHWwHRy8//NzfDl//owBXMBohi4Lg3mkDbR3Ovv8PmC5OI4wJwZNB7rBR+EHlJbf5DXXC2FnT8ID7EHFzsLMXnH6Q0qqMfx0bFk+Bwk5HpVnztE7DwzO1aZXwfzoVv3/iAf242vxdPYv3WVwJJeL+tAFLHlC0N6kNsoH9/RMQFDIBV45k43yLHK6LnHZcysUH/+YFSRAEYQFuYYhftQgzRvB3nSPGBQUhiC/u15BbVC2KnYRF43CtsBG+TyzBokdC2vbBxgWqRxYh6tG5CHmIHRM4A36jBdReuIC6tveVC8LiE7DIWz5GxBfRSbEIGvIdCn+agKglv8T8sGD5eCtUF5ehvm3stva4py7Ije2+0UiKDYJdaSE0E6IQ/eR8zOHXn+GH0dbVKCqrh95XvTadESydwTzeZHj83xVcmxiN+EXT2XlO4cJPclwD2vKf+z3sH4rCggWPtl1rnPNNVJy/jEZ2MdvpMVizNBwTf/YtTpcbNpR5ITwhHlFTBiG3oEwOs5xhw4aJg+sZRwW/QC8I18tx8qy+Q24bl8/ijO4+tn1r5FSMuZ99uJ88C8OjQufMgdOgZiamgIaykzB1WtXMn2PMrXPY+rdiuE/tIg2M5uZm3LhxQxRp5mLcNnWnWTIfAUwjtFTlYvuqxYiIWIyEN4+gnD/sLWrsXdxupQn5bRz8Wdy6r/dikxg3Astf3ov8qhZYj5mHZY/xWNlIjtH3JeG9fsTttsVCK40OCldX1J1IxfK/l7MtAa7uNij/+1ok5/A+9gKcxrE/o1YhMdIb1uzqpZ+kImExv+ZyJL+bD5ZUnbRKceMe84T1zToUvrtJjsvK4HesDOQoWjzZjz5iDHuwKo4gdc1yMS+LV6Uio4TlUuGPqF95yjEJgiB6kTo1cj7LwvHveUVcAzVbz+LLSd3KV4B/1GxY5b2PlJQUpHwg2XJ8H49F2ERb1HyTIx6T820NrEaqsHBJCJMyXWM1PAQrlvkDJdni8ccv3IAwMhDRi/zNcC62gnPwCiydzg7P4Wk+jtJGAe4zorF4us7Rg9wRtpyn0xE3io9LecuvhOAfjcjJ9nKkrnEJjUHkJKDsBL9WDgousTBlGGIW+rLSAZoKClDSDDiP92XS0ICJKviwSJWFeXJA9+AjBfc2CsEGuN7Q0RAQthQ+QyuQd97QazMUS3nT1bJQeRsoSN+Bre9+Jm91TXfy0SdETdBYN1b5A+XHNyGjQpQgKP80FQdOsXVrL/g8KEZjhCBEKTX5vLkuDbliXPZbO5mG5P1MibNHxksVJIbdVjSFOPinI6i7JX9iVB3Frr+qkV/TPnCQ5+MB4PKiLmczEt9i4kRMah3y9ycj+VNJDI2bLvXI8ouW4pZnrsP6/blyXFYGRRroG10EzJvChBITeunPp+JIiXQ9DRM42//7c1EAeY6fJ4YRBEH0Kk2VUJ8qQHHtDbahQRlbL+DLhXppv4gzcPFjZH6nGwa0/ngGB/+6E2lMUPBjjmfuxWE1E0cKJXzd5UidIHg4ovTAThz8UrpmTvpeZFeyHSN9EdBBGRjC6gXHUhzYdRA5YppzcHBfNipvAe6+AW3CwiVkPlSKJpR9uht7DjMxwuN+eRh73s5Eldn9qrwwZXg+duxMQ9YJfi0mjtK2Ie0bDWxHz8GciSzKLTUKzrGX/PDx8DUY2Fep9Mbg5hIUFPTM1ZlPfWAaBbg+0TRY0E7BhcuwZlR8YyhImHBhdXLFVx9Z1uphJp3nwzh9QtTkVkqVs2dAEuZ5cGUmwHNuIhZP4+s/obZU3M0YCyduUXMOQnJGBjJ0l+ek8VjsFR5izNuJ5ptPkS7pKRHN9/nIl9e1jB3Glb0G508Y7mHi5dh59iNhuXQZK257K/iTrUGV2tAuYwgTP+ydAWslog8Y5P9AhCiM4KCAH/9LEARxx2Fi53xHxz71F5ko1XlnckrLxLcgnPk7rSsq8pHFRUwbGpRc5NcZAlszPubLTmaJIqYNTQnKatnfIbZivcGbvnzHMnlTW4CsMwYJ1ZxBjtogzCRNKPqqgKVOn7JjZ1DDhJG7p6TgygqLUc8E4PjJOpkf5Atf78HQnCuAWjet3YDP5dQVCqWOI7CONUWLKmpl+/4RP2DrVkNfGe7s6wPhUp4JH5rP8N7WrRZZZgwxJx+G9I3mpz0ZyG9gGXAPQeL2A6ySPoBtz82DJ8tPy9lM7LooxxtoyFNdONlZfuMIgiD6HjWoNeYiMcgW7hODER61EDErVmP1M2uQFO4l7+ya+iuX5LV26hu4dDBHFNWjpkOa6lHPfWPsnbltieEKZ6ZpmirLWA460nrL9LxE+lSh2pgrTH29KHSEYXJiL5+Gmokq50lT25rfbFW+8BpUj+LC7vvSaOl85GBZbLQtRagb5mPQ+0luKtLG+WFEB/GjigqAByqQ14mjb0/pzgjIfULUCEvmws+BCeK6OrRonb54j6acXViXlKajemtxrZH9qTyCBD3/mPYlisU3ho1j97qHdZe6G/wXI2DsDH8pQAdlsJL9hNjjXylZcc7X8hzaQOCBOijj/STrSxvnUctP21iIXUbyLi5xKSiUIhMEQdxxWg2tDIIvFiasRsz8AHg7WOFGVRHyjmUj80y3RqO5rXQ2qaK5dMi/DjebeNMdpwZ5hZWA4wSoRG1nC9+J7qyKU+O0ab9Zs+FzKZkPEzk5FWi28YBPmBxkSNZ72KquA4aNk7pshy3FrJEaFO24Pc1OWizLh0SfEDVLZihhfbMcR/+aguQXE6QB46KWI6FDt+cjOHexBXB/GMkb4jBvvBmjDpbWgusA67HhSJrrKZsabz+F/z4P3qimCH4OG5cEwVO8sAL+SzZi3RxR0kD9b0l+ZJeUoQXWUM5PRgRvfnP2R/RLu7BJdDTWpRy5peysdn5Y8kYiombeufwQBEF0B5cZgfC2q0fB/jew7Z00HDycheOnCnCmSlvB9wVaRTEiuLgbdTweYiP1bu0aR7gYm75otLv4IXu1tl3ISQ7DAryVTNU4BYi+RdxB2NSoHJbQ0qLvjdklpxs6NJl1oEaDZv7x7azCgrG87lXAR9s8xRclD7OBR7C+RacnWJwPRp8QNVU/seIc7Il5L2zExj9uwwEdX5H0falYNVNbdWuw928ZKG2xhqsqColv7Gv3KRGXA0h+WI6q5WIu1Lzp1toVIc/pnjsVcVKM28OJN7HvhChr4LdsHbaJPjD7kLzMD4rBQN2xA9h2QoqK/YeRJ0b1xyre/PZOMmJnsJ9AlRqlDVIULflb9iGfxRXGz0Pcev2y4ktqvByREfISb8qT98lzQAkzkozGJQiCMB9HOJs5+r6zI3fFrTdolhLg72N+89PtpxRlP7A/7ioEM3Ghh2Mggn3MncDBEROmexu4FbO8BvnC9lYNStQ6DtS31CguuwlhnBL+U5Vw7gUHYS2NjbxJwwKmOrBUNkPTmaJyFsRxaDQ1Bfhoh27zlbxwS444Tg1b74EfjS4W54PRJ0RNxl+PoFxudmpp1Fdm1gpvRPzuVcSNkgPO7sKLL+9F7kWdpqpOyUfK5l0WxO8tNDiyIREpn6hRpSOBW+rKkbt3PVZtPKKjjLOxaWMaCrUR+WB6RRnYnHgY3JdND80RJP8mBRlFVdBYLmIJgiB6RPWPvGJ2hO/cEKimBSJyducTJpSWcQ9fLwT/ej6Cp6nYMcFYGL8Svja9YZPoLZqQ/3k+6m85QrUkAdGhgSydKgSGRiN+hS9a5Z62bbiFIP63SVgdpTSw7NSj1W0hnl4WjsC2vPKBWdme05nIMXihq08VQWM3ATMnO/aKg7AWjcYgvbqELTUYyTcUS/mAeFe/a3P4DV22lIXqwns5KdBs0inYGB27dFtKp/kwQR8YUdgfSbuSEeJUjoyXk7D9a51MOLN9r7J97IEo/TACiXvkcIIgCOIuIUA5PwaPTHQUB0DVfHMQ2/5Z2slIwwK8QyMR7ucuj4Bej7LcTHx4PRBrwr1QlpmCNPEAPvheLFR1mW3j20gD6oXD8dRe7PzMwAeHD6ynd7yRuGIcRxS8uxNZBr4qvk8kIXx0mX56h6swf34gJjgLYt5u1pYh74vDKB4Vw/KG9vNwURPjjyE6M4K35T/1OITHwzHTSyqfm5pqFB87jMOnjYk4ZwSveAqBThqcSduGzJ77CIt0OqIwEzVSU1E7hiP78p5Ps0bqj+Jbp96K97LkDWOI5xV0RhTmosYHiqtFRiw3vOfULLj82PsjCvcBUROH1IwoeLdUIXt7Cg7kqKVxWgRPKIOjkLiK94Ji+16KQ8rt9EgiCIIgCCO4z0lAzNRW5L+9E9naYeAN6N70EbKowXHs2Z3TK/40Wtzd3eHkZDAQTj+itrYWlZVSP/5+JmpCsG5fEoI68fnVFOzCipfSu3Zk6gZxWzIQNUbe6ILSQxFI3ClvEARBEPcAsvCwL8Gh1EMokUMN6Zao8QpHQrQv6j/fgvdP9o4/jRY+y/WECRO61S36bsN7PRUXF7f1RrNE1PSB3GZjk9ZHxMAniPuf5H+YglW3SdAQBEEQRGcIvmFQOQFNF4pMCpruopzmA6EXHYR14YLghx+493P/g6e7u93r+84s3QRBEARxt/CJREKALcrKy1B5lYsMAS6T+DQOjsBPahzacxglnWgPsy01boEIVzZBM8wfgWPtUfavHUg7ffs+21kdj+HDzeyq1ge4cuUKLl/Wd4DqZ5YagiAIgrjL1F5CFZzh7ReMsNAwtgTCx7kVZacysXd354LGIlqHwGt6GALHWKHy2IHbKmg4XCBwodAfMCZoLIUsNQRBEAQxwFEoFBgxYkSf9LHhPjS8yamujo9105F+5ihMEARBEMTthjsPu7i49KleUbyXU3V1dac+NCRqCIIgCIIwCh/HxsHBAYIgwM7OTpwN+05YcLhFhk99wEcK5gPrNTQ0iOPQdAWJGoIgCIIgBgTkKEwQBEEQxD0HiRqCIAiCIAYEJGoIgiAIghgQkKghCIIgCGJAQKKGIAiCIIgBAfV+IgiCIIh7COrSTRAEQRBEv4YG3yMIgiAIot9zr0yTQD41BNFv8UTcG+nIyMjAvhdC5LBe4OF12HcoAxn/m4q4UXIYQRD9Fjc3N4wcObJPChoOTxdPH09nTyFRcw8S8tIBVhEeQPLDcoCFxG1hFR6rSNsXVvnJ+/oF8aliulPj5e1+yzz4jbcW1xRTQtBbsiYk2A+KwWzFzht+86QwgrjtDBqP+c8kIWlFMFzkIItwCkTsb5OwOkoJWzmIkATN8OHD5a2+DU9nT4XNwBc1qjhs3peOfet78UuWIG4TES/swoF0c0XiERSWtLC/Lag6mY1sKbDHZOcUoo777mnUyDkihRHEbcfaqmdixMYKXIsT7fAmp/4iaLTw9PJ0d5eBL2qGecJLYQ0bskn1GrtWRyAiQlrSL8iBRK/gOtIVgmR8MYNy7FoTxe5DFOJe7y1Jw/h8E5ZHsvu7eC3SLsphBCHj+MB8xCZEQilv9xpNahz8SwpSduegWg6yiMs52POnFGxJV6NJDrqX4U7B3IemP8LTzdPfHaiqJwiCIMzG1sUdLoItulflEHcK3supcx+aUCx99lk827asxIKp8i49pHhLw+RNztQFWKl3rP6iF9coKixY+SxWRqnkbX14unn6u0Pf6f0k+CF69Sr8YoYnFPKXqqYiHx++tRlpX2ukAC3OIVj133EI91bAmtsbW+pQfuLv2L4lDYVi1BAkv58Efwe+bopSpEckYhdffTgZB573h3AhHRGrxRCZOKRmRMG7IR8pMcmieZ/7oyTNAPJfT0ZhcCKW+HtC4GnQlCM/LRXJH6rFI81HTmtNOtZ+7YfkCG8IqEPun1ch3z8VCbNdYd3I0voSS+tZ+RCe//9ajocnsq96fu2bLdBc+Q6f/y0Z248ZKSsed7yOBYA3LQzWsDwsRvLnUhBHMXsVXvmPcHjLN6Clrhx5f9+ON9MKYXDWNrh/TdQYnbLsNgL8fhGHZQtmYdxwQbqvLF91FXk4uGUT0rV5196TknQs/8haL711JRnY9t/bkaubWO1zNZ09V3ZymJh/9gQcikDiTinIMlhao5/Dql8EwFP7sDayZ/DkQaS+lo62J0B+rnAiBclFIUiM9oenwMJvalCevx+pG+S43Mcn0puvmUTDzrF4g2yN0T6v0paI3n4Z8d445yN1TzOWPxsEBbuL6o+SsLslEclPKqXnbOsqbPpUKjDpXoqrMsbvq/Qb0L26Lh2PMfe50qY3JeZN2D+3CYtD2T2Tf1u576zDpk+M94wg7iwuofGInVaPzJQ0nJHDiL4FH4dGqezElsZFSbAHcOkodqQXyIEGhC3Fs8r2ZqA69Va8lyVvmEAVtRKz7q/G0R0fwehZ5etq+zI1d3Z9hlqtFsex6Ye9nzwR9/+SERvcLmg4goc/YuOXyFsywjwk/zkJEeNlQcOxVsAzOBbJr8X1vknUKDYYu2IT4pgAE0UFR/CE/1PrsK6bzrdwCEISq9jE8w1WwO+XqYjjgobvs/PGvCdlnyBt/n1kQcMZbA3BVYmI9duRPFenshGisPEtOa5OuRpreBbmJiN1bURbxcOxVngiKDYZr8bfiVJdgrj/nAelqyxoOCxfilFBiFvLRJ8c1Ib7PGw3SK9ifASeeyFC3uL4YxUTn+JzpRU0HCP5twRl/KtIjg1qFzQcO/4MxmHTlo7PoM0EFv6ULGg4gwV4zojDujvi5+WJxU8zQSM+VwKUM5ORtIQJGnFbgaDHl+iJox7T0oRr8irH4ufK2glzt+zGqrmyoOGw31ZQ/DrE9mpCCYtxC0N8UhITNI5swwvhbD2JL0/4iru52ElKioav4I2wXybo7YONC1TzY5GQKB/z2zVI+GUYvPXuqQvC4nWOEfFFNIsfH+qCwfersHDFGp3jg+GlV9e1x23DN5rFj0eY22C4TFuIp7TXX5OAmIe8Or4KtOlco40Xj+gZXvAS88bPI8czQlv+2S/K+6FovWvFzlfBWa5tbafHiOFPzeLlaAgr1wR2zIpgebt78IH1TKPCgge7EDSM0BEKUXRs3VrEPn/MIRQ+I21Qd96EoGGoxrjA5moRO+dRVDTLgZ3QeT6M00dEjdyLozIbm1Ytlvw1fpWI1A8LUaX7hmSE/DYO/kw81n29ty3u8pf3Ir+qBdZj5mHZYzxWNpJjZL+P1/PFr0H+Jav1A5GWnlgWWGXLXtKakgyk8jQsXo+9X/PbrkDA3CgpiqU4u8K1jn1V/yoD5WxTcHeFzcUMrN2QKz5QgstYMVrEC1L+W6rysffl5WJeFq9iX/olPJcK+C9azqoxiYgXlsCPvTRaLh5B6hopLi/XvQW638ecEKxlla6CXanw3U1IWMzLZzmS381HVYs1vOcsg65UuF1cq1HjyE7t9aX7Wsgz7+qHeYa/cUGA0FKF/L3rsThiMRL+Kn31C2P92dMk4fl0HCI82HNVU4i9GxNYPHbexQlY+ykv4W4yahUSmfhkdx+ln6QalBV7MtqewXasFUyAa0qR8SZPw2Ks31so3lPF1LkQn5adidK9YYvko8StHdK2dtGzwnyeLOWFL/LzbRIH9lzx8yWlIr+BbbPnyrWBP2dpUHMfY2dPBIgRzfeVyt4g/0bblsVIPcFzVIf8t5KRJkVjdOO54j2uxgBVJ/Yi+VcsPvttZVzkBauEf7Qch7g71KmR81kWjn/PPVZqoGbrWXw5WSbtFxHgHzUbVnnvIyUlBSkfSLYc38djETbRFjXf5IjH5HxbA6uRTKQsCTGrp5PV8BCsWMY+bUqyxeOPX7gBYWQgohf5o2vnYis4B6/A0uns8Bye5uMobRTgPiMai6frHD3IHWHLeTodcaP4uJS3/EoI7MGLnGwvR+oal9AYRE4Cyk7wa+Wg4BILU4YhZiGXO0BTQQFKWIXuPN4XHWTNRBV8WKTKwjw5oHvwkYJNEuYDD5tmVF8wLWg4n727tVPRY4gqahwUzRUoarPmyM1by0LlbaAgfQe2vvuZvNU1nebDBH1E1FxDE3/B3q/EvKBx0pdjTSmO7FmPuHW60iMEIUq2tyYXb65LQ26F9DqvO5mG5P28UhPgpQoSw243mpOpWLFmO47wNGgKkbYxm1Ud7N3rqUT3UqBB4QebcaSmBbwo2GsdR/duh/pElVgBSkRh5iSW/xY10hNZ5XFS2qOpOILta/ZJTW8ePnKlHo3ZD7C4LG27nknFkRL5LKxcqw0V8sMhUDJBXJfzJtbvz0W5WKysgtqfjAO86U/wwpSefTiYwS6s/9VapB7SXl+6r58W8w0b2OgYRSR4BZqIZLEJQ4Pyv38KNa+0HZxkUefHXlh8rRwZv1+PtGPlUuWvKYf6ulTC3cHz8QDx/HU5m5H41hG9skoWxZKAcdMNLDBcRKxIxHa2n6e1MG0TsrlosPOC8raXK3uSPtuGXWe1N70F6o/5c1YGTaMc1EO45Sphhj1KD21iZSDfPE63nqsWdp51iNuQhvwatsme3+2nZRFKThx3l6ZKqE8VoLj2BtvQoIytF/DlQr20X8QZuPgxMr/TDQNafzyDg3/diTQmKPgxxzP34rCaiSOFEr7ucqROEDwcUXpgJw5+KV0zJ30vsivZjpG+CDBm8NCD1QuOpTiw6yByxDTn4OC+bFTeYhrfN6BNWLiEzIdK0YSyT3djz2EmRnjcLw9jz9uZ7G1srnmXPdPD87FjZxqyTvBrMXGUtg1p32hgO3oO5kxkUW6pUXCOPf/Dx8PXYGBfpdIbg5tLUFDQM1dnPvWBKVQOrF5orsbF03JAr9C1laY7dJYPU/QRUZOG3R+qobF2hX/sRhw4tA/bNiQherZht66xcOLWKOcgJOuNk8KW5yQfA3uFhxjzdlPFhITO65v9xs+jlleqg1kFLIVYRoManx7SOWNDOfJPyOttOOE+fo8rzmKv3sU5GSgs55W1Kzx5E9goNzhxIVBdyvZ0wTgnsewUwcn6ZcqWxOliqeL2Fyv3U1mHbfukweS0i0nfjYbzyNatQDvgDQV/VhqqcLYXe/CMHca/2DQ4fyJfCtCh/Nh59vJjOZGtam3UlOOI/sOC89U8wJhY621KkbtF18+rHGf3d1ZuFjIpDgmPeeOnE9vw4k4Df7JuPVflKDQ8j2zJ6p7/E3FnYWLnPFej+qi/yESpwWNXWib+WuDMdFCXVOQji4uYNjQoucivMwS2Jl4RupSdzBJFTBuaEpTVsr9DbMVnlDd9+Y5l8qa2AFlnDBKqOYMctbm/mSYUfVWgXzcwyo6dQQ0TRu6ekoIrKyxGPROA4yfrZH6QL3y9B0NzrgBq3bR2Az6XkykUAquhrrPKKmqlhc69nRA2QrTI/qDnc/MZ3tu61SLLjCGd5cMUfUTUsIf+3bVY/Ktk7Pq0EOUN9vBUhSB27T6kv3Gn/GQGCs1o5trG07574uouYdRPpUfIAvBuYHoKk4EF9+9aHwXPinRs2mAg8ol7lBrUXpZXdRlkC/eJwQiPWoiYFaux+pk1SAr3knd2Tf2VS/JaO/UN/IkzRxTVo6ZDmupR/xP7Y+/MbUsMVzgzTdNUWcZy0JHWW+b+qKtQrdsap6W+Xvx9CMPkxF4+DTUTVc6TprY1v9mqfOE1qB7FhcZOYBldjhw8zAezhO+wlYsOvqjroFB2V9iosGAs978pYjKmd+nOCMh9RtSI1OQj/c31SFgehcWrtiOX+8mMj8CySHk/anGNm8wrjyBBr02/fYlKam/R18XG0fLuYcplk9ijbiYzgjCWWwZ+qsV5KeQ2IDfTeUzq6DQpRMHPkwmClsv4Lodt58jNVkMV8ON/tbCKKGSCwcHV18Qmr6rMBKNlysdBWbtfinp78MP8QO6n0oLyT7V+KtKScqK7VaVsObMTDNrslYibovU6spy6G/xNKGDsjA6uy1AGK8XnpaqyoxVHH38EjeP34CfU8jbLDghQGO/p2Idg5fhaAstJPra9sKu9x5cud/25Iu4GrYZWBsEXCxNWI2Z+ALwdrHCjqgh5x7KReaZbo9HcVjqbVNFcOuRfh5tNvOmOU4O8wkrAcQJUorazhe9Ed1bFqXHamCi0ED6XUqc0V+CorgUl6z0UXQUUI9r9X8xm6ii4mOGj0x26zIcR+oaoeXgdtv0lGXHhyrYeIprGIqgruR+ANe5ra3c8gnPcadD9YSRviMO88WaMOlhay6oOdpax4Uia6ymbGg34vFxsNoBHEJLEJi8FQp5ORTLvJcLDjWA9VJtWAZ5zVyH1t7zLLFB+Ol109L09HMaZ8yz/1kpEvZ7Yln/BYx4S/xgrOQWfz2OxOPkQrbuusxD3NHfWlNO5O1F0NNbjX+fwHTuta2gyNj41D97mmIN7FQXsRatKM6vk1ahlOkZg9yLquc1MgJi6A12RjaJKqax+8UqEeK8U06ORvGsTosZ03xpU+O/zolhUBD+HjUuC5GdAAf8lG7FujihpoP53IQ9sx1qA0kPKB79Xq95YiyBexhV5SDdoGqu9xmWAKwKejIb/Hb8P5iJg3kvrEOVRjvSNyQZNazrc9eeK6Au4zAiEt109Cva/gW3vpOHg4SwcP1WAM1XaCr4v0CqKEcHF3ajj8RCbIfJaVzjCxVgPqdHu4gfP1dp2ISc5DAvwVjJV4xQg+hZxB2FjliJLaWnh7xHj1GlYvXq9oYPvixg+1AGWfk+JPZp63UdHorN8mKKPWGps4DTKH1GrN2PbAbnd/Z1UxKl4La1GTpvxRYO9f8tAaYs1XFVRSHxjn0FbvZH5jC7mQs0rd2tXhDy3DQfa4uoORX8ERRXsD4+zlp9zH5Ie84bQooHGRJl6ztWm9QC2PRchdk1suZCO1Ldun6Rpzz9LKhcycv4PbGcCZxSrqBtLkfG3NLkZoBAHckrZl7I1vB9Lxr62dGqgPitKuHY0e7H7ExaX5d9vUSJS39GWkby8n4x211c+Tkz7PmlcE29EGY1rLkyAVPCCFuD3n9I9OrB9HeLmKvW7YltI2uE8SYBMXyXeq32vxMKfvVmqikq731Ry4k3sE3v6KOC3jIlx8RnYh+Rl0nxJdcdYORv6QrF7tXk7n29LulcR4/nDUor0P2/vIICPfP2daN0QpsQiWec+HHipvVSlubvkffJ4NcKMpLaw7s1pZf599XyKOwYzZWzN9qe0H6Nd2q5v0XNF9C8c4Wzm6PvOjtwVt96gWUqAv4/5zU+3n1KU/cD+uKsQbOi47BiIYB9zJ3BwxITp3gZuxSyvQb6wvVWDErWOA/UtNYrLbkIYp4T/VCWce8FBWEtjo+leAAW82W7YCBjaZLS+NpbZW1QYdb8Nmn+82KsOwlo6y4cp+oao+fxNbPtEjaoGHQXBBEVVUQZS/mMt0nRroLO78OLLe5F7sQ4tfBC1LslHyuZdXcQvx/Y/70K+3JuKwwf+2/tyMo7+KAd0Bh94LWcvkk2Z4XsTY/m/KZfVKp0B+hjle17Etk/LpXl8OHXlyN2TjLXc894A9c4Xkbw3F+V1JlTcbSbtlc3IKNHJE7v/5QXpSGGVYrf5fBM27S9ElTa7miqo/74Zif/gHoLdRYMjGxJZutjzqlOMfEC53L3rsWpjF74lfEBBJrT3vvyi3r3SotmfjM1/1z93X2Oshzx+khnc7eeK6H2qf+QVsyN854ZANS0QkbM793osLeMevl4I/vV8BE9TsWOCsTB+JXxtesMm0Vs0If/zfNTfcoRqSQKiQwNZOlUIDI1G/ApftOrUDSJuIYg3OnlmPVrdFuLpZeEIbMtrAkKYUKo/nYkcg1eP+lQRNHYTMHOyY684CGvRaDp5gWQVoaJZAR+drtZ8oD2fYc2o+MZCrxix6Yldr8GYpOnYpdtSOs2HCfrOiML9BO1oqt0fjZa4ZzA5UjVB9GcEKOfH4JGJjhjMPos13xzEtn+WdjLSsADv0EiE+7nLI6DXoyw3Ex9eD8SacC+UZaYgTTyAD74XC1VdZtv4NtKAeuFwPLUXOz8z8MHhA+vpHW8krhjHEQXv7kSWga+K7xNJCB9dpp/e4SrMnx+ICc6CmLebtWXI++IwikfFsLyh/Txc1MT4Y8iFw9ghzzXVlv/U4xAeD8dML6l8bmqqUXzsMA6fNibinBG84ikEOmlwJm0bMnvuIyzS5YjCjNBlzzIhI2+gDkVb3zPh6MvFiQ9TYEZGFBZHHYaJY6XjFHywvQ49oPg0CbPg8mPvjyhMosZCSNQQZkOihiAGBO5zEhAztRX5b+9E9hU50IDuTR8hixocx57dOb3iT6PF3d0dTk4GA+H0I2pra1FZKfXjJ1FzGzFH1HQ+N44+xubs6f/I8zPJW51jfH6hO4aReZRMojMHmFmQqCGIAYAsPOxLcCj1EErkUEO6JWq8wpEQ7Yv6z7fg/ZO940+jhc9yPWHChG51i77b8F5PxcXFbb3R+uHcTwRBEATR9xB8w6ByApouFJkUNN1FOc0HQi86COvCBcEPP3Dv5/4HT3d3u9eTpYYgCIIgfCKREGCLsvIyVF7lIkOAyyQ+jYMj8JMah/YcRkkn2sNsS41bIMKVTdAM80fgWHuU/WsH0k7fvp4BrI7H8OFmdlXrA1y5cgWXL+s7QJGlhiAIgiAsofYSquAMb79ghIWGsSUQPs6tKDuVib27Oxc0FtE6BF7TwxA4xgqVxw7cVkHD4QKBC4X+gDFBYylkqSEIgiCIAY5CocCIESP6pI8N96HhTU51dfLEywaQozBBEARBEHpw52EXF5c+1SuK93Kqrq7u1IeGRA1BEARBEEbh49g4ODhAEATY2dmJs2HfCQsOt8jwqQ/4SMF8YL2GhgZxHJquIFFDEARBEMSAgByFCYIgCIK45yBRQxAEQRDEgIBEDUEQBEEQAwISNQRBEARBDAhI1BAEQRAEMSCg3k8EQRAEcQ9BXboJgiAIgujX0OB7BEEQBEH0e+6VaRLIp6av8fA67DuUgYz/TUXcKDmMIAiCILqJm5sbRo4c2ScFDYeni6ePp7OnkKjpY4QE+0ExmK3YecNvnhRGEAQx4Bk0HvOfSULSimC4yEEW4RSI2N8mYXWUErZyECEJmuHDh8tbfRuezp4KGxI1ujy2DrveT0dqvLx9F8jOKUQd95vSqJFzRAojCIIY8Fhb9UyM2FiBfw8S7fAmp/4iaLTw9PJ0dxfyqdElPhUZkd4oPRSBxJ1yGEEQBNGG4wPzEfmQFfK2HYJaDiP6HtwpeMKECX22yakzuI9NcXFxm/MwOQp3FxI1BEEQneISGo/YafXITEnDGTmM6Hu4u7ub7OUUuuxZ+AyTNzhXi7D13c/kDS2hWPqsD9psJs0VOLrjIxTImxxV1ErMGtkuOJovHcWOdN0YplBhwcpZcPnRdHzeK6qyslJc73eiJuSlA0iaAeS/nozC4EQs8feEwO2ImnLkp6Ui+UOd74GHk3HgeX9UMeHx4olYrHtuPvxcBXFXXVEaUl7Zi0KNuCmimL0Kr/xHOLwV1uJ2S1058v6+HW+mFUKKFofUjCh4i+smaMhHSkwyssUNKb7riRQsfsseiX9YjHmjpNuuqcjFvvWbkFEjbgKCHyL+YxmiZoyDq4N0fTTWofzkQaS+lq73lRO3JQNRY+QNkVKkRyRil7ylRSqrZuS+noLvgldhUWdlRRAE0cuQqOn78HFolEqlvGVA2FKsdCjSEROyeNETNlKY0CZSJBHigXZhIwkaDYq2vgfpKMNjjDB1AVYGe0ArUboSQWq1WhzHxhJRM9je3j5ZXr9rjJ79JII8bGCnDEPQOAVstNYyG0e4qwIw+od0fPm9HDYmBE8GubPSmIzImDCMtm/PrN39kzFtRDHScyR1J8xNxl9+GwJ3u/aW1sF2jvD0+zmmC1/jH6eusJBpeDRG2a5GjdFUidwPsyElQYrv1ChgVmwE/J3sxFCOjYMn/JRWyDhSiBYe8Ov1+NNjE2Bvq9PSa20HR69p8BtZjI9zpXRypj0WA6VeIupw9v1/6KlijlRWdnDyC0HAGMOyUsLh6GHk18thBEEQvYVbGOJXLcKMEUPYhiPGBQUhiC/u15BbVC2KnYRF43CtsBG+TyzBokdC2vbBxgWqRxYh6tG5CHmIHRM4A36jBdReuIA68WXJcUFYfAIWecvHiPgiOikWQUO+Q+FPExC15JeYHxYsH2+F6uIy1LeN3dYe99QF+cvWNxpJsUGwK2UfsROiEP3kfMzh15/hh9HW1Sgqq4feV702nREsncE83mR4/N8VXJsYjfhF09l5TuHCT3JcA9ryn/s97B+KwoIFj7Zda5zzTVScv4xGdjHb6TFYszQcE3/2LU6XN8lHa/FCeEI8oqYMQm5BmRxmOcOGDRMH1zPKhTM4efayvMG5gDP3jceDnvfB/qszbIsRFoTZ99/Aub1HpG1cxtmb7pg6xgXWzSdx9nIowua44YZ6Fz6WIjCk88z0GIqWk2fZER1Rzfw5xtw6h61/K4b7VC8I18sN0qJPc3Mzbty4IYo0c+lDjW3WUCisoSnJQOqqxYhYvB57v+Z91hUImBslRdHBdYofFJpSZLyZgMUREVj+lmR5UUyehyAxRgjWPuXPjq5D4bubkLA4AhERy5H8bj6qWqzhPWcZIsR4u5DIjo/gy6FSMYQ3P4nb2qXNStOO9Xg/eKMK+e8mYzmLs3hdBsrZj9N6kj+WyHHQeg11RUewa6OURun6hSxFPP3adErsWt1+vfS2h8QU1hAEqaxSfsWO+VUyjlzkbwYmqh6RrFYEQRC9Sp0aOZ9l4fj3vCKugZqtZ/HlpG7lK8A/ajas8t5HSkoKUj6QbDm+j8cibKItar7JEY/J+bYGViNVWLgkxKyeTlbDQ7BimT9Qki0ef/zCDQgjAxG9yN8M52IrOAevwNLp7PAcnubjKGUfpe4zorF4us7Rg9wRtpyn0xE3io9LecuvhOAfjcjJ9nKkrnEJjUHkJKDsBL9WDgousTD2wR6z0JeVDvtGLihASTPgPN6XSUMDJqrgwyJVFubJAd2DjxRsETUaNLPUOUyVt7tiqgOL3QyNtlVCCz8PE4ajxPNwy82zeHZZqLiLU5C+w0gzl2kszgejT3kQaU6mYsWa7ThSweSJphBpG7PBZYa1p1JPAIjU5SN1RSK2f1ouipm6Tz6FuoGtDLaRTFsPh0DJhGpdzptYvz8X5aJwr0P+/mQc+JptCF6YEszDuklLKdJfjEPy/nxRpGi+3o78CmlXG3vWY/nvUpF+TEqjdP1PcV43nd2k5UI6kllZZfOHqoaVxelyMdzJJUD8SxAE0as0VUJ9qgDFtTfYhgZlbL2ALxd0TcPOwMWPkfmdvrm49cczOPjXnUhjgoIfczxzLw6rmThSKOHrLkfqBMHDEaUHduLgl9I1c9L3Ipsbukf6IqCDMjBEgJdjKQ7sOogcMc05OLgvG5W3AHffgDZh4RIyHypFE8o+3Y09h5kY4XG/PIw9b2eyz1dzLQWsXhmejx0705B1gl+LiaO0bUj7RgPb0XMwZyKLckuNgnOsRhg+Hr4GLi9KpTcGN5egoMDQgmMZfOoDi3AWWH2kQcNpeTurCBXNCvi0CRIVFjzoAZur3+EjbRx2hMBud0dMhVuOxflg9ClRU1VxRK78ZTTnUWtCAGiKs3FEL3I2kmN0rCrjnERVrAhORkZGht6SOJ3vsYfCg0fsJhWF2HVWXpeRrC06fjCCH6Jf2IZ9/6t7/ST4m7AKWkL517uo5wFBEH0MJnbOG36+A+ovMlGq974GSsuq2P8CnM2pACvykdXeWs/QoOQiv84Q2JrxMV92MksUMW1oSlBWy/4OsRXrCd705TuWyZvaAmSdMUio5gxy1AZhJmlC0VcF+vUYo+zYGdQwYeTuKSm4ssJi1DMBOH6yTuYH+cLXezA05wqg1k1rN+BzOZlPKJYqFWi+VCT7xnAK8NGOo6gY6oNnubXl2VnwuK7jc3P6I3x3lWvSpexoLew8Ov4yYGd7b+tWiywzhliWD4k+JWoGFkrEvZaM2GBPKCwXmwRBEP2QGtQac5EYZAv3icEIj1qImBWrsfqZNUgK95J3dk39lUvyWjv1DVw6mCOK6lHTIU31qOe+MfbO3LbEcIUz0zRNlWUsBx1pvWV6XiJ9qlBtzBWmvl4UOsIwObGXT0PNRJXzpKltzW+2Kl94DapHcWH3fWm0mN+NW3LuVTRXIE/XYZc79DIhI5xnooQLE7Yc1Yxj4qZdxHz27lYUXVXARxQ9fBkHTU6R2HLRW3SnO3rfFjUzgjCWWzV+qsV5KcR8qq+JzrpVmQltvir6SxTW7peiGiIM85PXeoBqPoLGMJXZUo4jst+PdN0U5HPrE0EQxACk1dDKIPhiYcJqxMwPgLeDFW5UFSHvWDYyz2idgfsOnU2qaC4d8q/DzSbedMepQV5hJeA4ASpR29nCd6I7UKvGadN+s2bDx3npkrClTIhIvZW2GnTVDn2ANzUV4b0sOYBRkJ5n0CQlCRut6Nm6dQc+gglfm25iVj4M6FOixnqoEp6iLVCA59xVSP1tkNgrqfx0OiSPEQv41zl8x1SNa2gyNj41D97mmDhlIeSqikb09E77Q3XNMHuIrmWNtShlklzD8zQzCol/jINfLzQ/EQRB9AdcZgTC264eBfvfwLZ30nDwcBaOnyrAmSptBd8XaBXFiODibtTxeIgN7/FlDo5wMTbK/2h3uLI/V2vbhZzkMCzAW8lUjVOA6FvEHYR7Qw+0tPCazDS8O/azSgEVOVuNdKlWwWEo0KwxtLkUoOE6+zPUgcUwjmqMC2yaq3Gxze+mZ3SVD2P0KVHjOXczth3gficHsO25CHgzgcMdYlPfsljSAJq92P1JKVqsXeG3KBGp7+j6tbDl/WSEyFHb+FehKITg4IfYV/Z1HrcrPi9CmXyuVdsPsPOwPK2PwzwfBTq2EvKxb9rTJo1X442onlyfIAjituEIZzNH33d25K649QbNUgL8fcxvfrr9lKLsB/bHXYVgJi70cAxEsI+5Ezg4YsJ0bwO3YpbXIF/Y3qpBiVrHgfqWGsVlNyGMU8J/qhLOveAgrKWxsVFeM0LYUswaCSZodug4/XbERjD8sJfEDq43dBhqREKFUffboPnHiyb2W06n+TBB321+4oPU5exF8gvdd4hV73wRyXtzUd4+EELnaNKQ/McMqKvMdQrrDOlcpTrXbmkoR+GHKcjosss2QRBE36T6R14xO8J3bghU0wIROdvEIG8ypWXcw9cLwb+ej+BpKnZMMBbGr4SvTS+1UfQKTcj/PB/1txyhWpKA6NBAlk4VAkOjEb/CF628R64ubiGINzp5Zj1a3Rbi6WXhCGzLawJCmFCqP52JHO6crIP6VBE0dhMwc7JjrzgIa9FoTNdhoSOYWNHrxWRIAT46XwcM88HSMDmIoYoKgIdNMyq+kRx/VVELdJyE2wfna/fN6dil21I6y4cp+tCIwgJNT0AQBNHnEaCcH4NHJjpiMPss1nxzENv+WdrJSMMCvEMjEe7nLo1+frMeZbmZ+PB6INaEe6EsMwVp4gF88L1YqOoy28a3kQbUC4fjqb3Y+ZmBDw4fWE/veCNxxTiOKHh3J7IMfFV8n0hC+Ogy/fQOV2H+/EBMcBbEvN2sLUPeF4dRPCqG5Y1V99rzcFET448hFw5jR7qaSSKWem3+U49DeDwcM72k8rmpqUbxscM4fNqYiHNG8IqnEOikwZm0bcjsuY+wSGcjCneYIkEX3VGFDUb/5UOStI8ezEWN/hQJHadakJ2QjU7B0PU0CZzujChMooYgCIIgOsF9TgJiprYi/+2dyOYD0Ruhe9NHyKIGx7Fnd06v+NNo6Wzup/5Ad+d+6rvNTwRBEARx13GGt5cANFfjkglB0228/MUB+HrLQViX6urqbvUe6gvwdPP0dwcSNQRBEARhAsE3DComPJouFKFEDustlNN8IPSig7AuvHv6Dz9w7+f+B093d7vX94nmJ4IgCIK4q/hEIiHAFmXlZai8ykWGAJdJfBoHR+AnNQ7tOYySTrSH2c1PboEIVzZBM8wfgWPtUfavHUg73RudU4zD6ngMH25mV7U+wJUrV3D5sr4DFDU/EQRBEIQl1F5CFW9q8gtGWGgYWwLh49yKslOZ2Lu7c0FjEa1D4DU9DIFjrFB57MBtFTQcLhC4UOgPGBM0lkKWGoIgCIIY4CgUCowYMaJbUw/cbrgPDW9yqqszPslCv+v9RBAEQRDE7cXKygouLi59qlcU7+XEnYI786EhUUMQBEEQhFH4ODYODg4QBAF2dnbibNh3woLDLTJ86gM+UjAfWK+hoUEch6YrSNQQBEEQBHHPQY7CBEEQBEEMCEjUEARBEAQxICBRQxAEQRDEgIBEDUEQBEEQAwISNQRBEARBDAio9xNBEARB3EP0ty7dlkCihiAIgiDuAfrr4HuWQKKGIAiCIAY4/XmaBEsgnxqCIAiCGMC4ublh5MiRfVLQcHi6ePp4OnsKWWo6JQ6pGVHwvpCOiNW75DDzCXnpAJJmCPIWR4P81xcj+XN5kyAIYoDjPCMWT81yROk/d+BgUW9NdU2YCxcKw4cPl7f6Pj2dqZssNQRBEMRtY7DNYHmNuNPwJqf+JGg4PL083d2FRM1tJHvDYkRERIhLygmNHEoQBNHX8EJgzFOIfchF3u49qr/cg5Q/bemnVhpH+D4Wi4RfKOXt/gN3CuY+NP0Rnm6e/u4w2N7ePlle71sIflj1xxQkTNEgK/c8WuTgO8s0PBqjhOLqWbz/jwI5rHuMnv0kgjyAymMfIPt7ObCbKONT8UbceFR9cQLld6dgCIIYUHghKNwXQnUhTl2gD7B2mKgJCYJXywXkFlXLYf0D3uw0dOhQeUuf0GXPYv7PH8SDD8rLBHt89fUFea8KC1Y+gTkzdfbrLrpxw5bi2fmz2/ZNHdmCk2fNaTqSrvFzL+Pxf/azn4l+NteuXZNDzKdvWmomRWHjWxsRMV4BGweB/dxkWGWekXEAyXPnYd07GWw9AwdS4uA5KRab35e2962fh3YvFgF+0euwbV+6uE9c/ncftr0QhY6620jcQ1Hwlvdq4X4yfF9qvBygRUwbS89LIXKApfDrJ2PbAfna/Fy7NmPVbEMznAJjnQXYj2JlsH0joibJwQRBEATB4OPQmOy2zYTIOM1RbN26VV6KUDfMB88uC5UjFOCjHdp9OktOBZrZv4pvPpOicUGjFFCR074fI2dhZZRK2m+MqQuw8tln8eyzs+BhI4eZgKef58NS+pylRpiZiNT1T2KCgwbqtFeQ9OdsVMr7MP1RxEyyx+AxgVDeL2XWZrgTAh6YgdFys6Gd5/2wOvQPFLRwi8br2LB4ChR2OgVjbQdHr2l4eKYdvv5HAa7Iwf5Pp+L3TzygH1cr+XQsNZLFxQZ1597HP06JQRJi2hRouZSLD/7d0RTTlaVGSutkKHRutI39/Zgw62FM+PEIsku1JpkbKM75GF8PUmFWwAOY8XAYRl/7El+W3JD3EwTRv/FFdFIsgoZ8h1PXJmD+k1GICAtB8KwgzJjkAauG71FW126idQmNR8KicbhW2AjfJ5Zg0SMhCHK/1mZZEMYGIypqER4NC0ZQUMdz+D6RhNjHxsGRrQ8Z4SfGCQqaDLvSU7jwkwvC4hOwyPsaCpt88eSSRQgPCYLHtVx8y0/vOB7Bv4hEZPgc/DyYHRc4AxPdmlBefBmN2i4ovtFIig2SzycFtaX5eAUcH16ExQvCEcKP958IxbULKPnRwqYqGxeoHlmEqIi50nlmTIbH/13BtYnRiF80Xefa7fnJvWiP4MgFrLzmSGXrNw7OrRUoudwonlJK4wyMGMI2ho2Ty0Un7wa05Sn3e9g/FIUFCx7FnId4WvwwzvkmKs5LZWI7PQZrloZj4s++xelyw3x6ITwhHlFTBiG3oEwOs5xhw4aJg+sZ5cIZA+vIBZy5bzwe9LwP9l+dYVvGCZ0zB243zmHvESlG6KzZuF9nG5fP4tbIqRhzvzVaTp6FMXuNaubPMebWOWz9WzHcp3pBuF7eqWWnubkZN25YVrf1KUuNctFGbF8/D55WVch9axXW7i1ER0OoAFdXoPTQWqSe5Htd4equQf6by5F2lv9IXeH5IPszahUSI71hzc5Q+kkqEhZz35blSH43H1UsmvWYeVj2GD+fFDfuMU9Y36xD4bub5LiLkfC7IyiXo9xWRsUh4TGW1pZyHNmSiOXcD2dxAlI/KWWpV8B/0XJ4ylG1qN9dixUbefpcEfT0dmyO9dOxUBEE0e+xY+JmcTBcrpxBdnYWsk6ocVXwQmBkDMLc5ThtCPCPmg2rvPeRkpKClA/OSKFMUKyICmRviWIc/4yd47PjuDiYnSNqBSInilFQdpKHq1HD1pu+P87W+XYO1LpDhjj4Y9FsK+S9z87Nzp8mnp4JhOhIBPL3cT4/JgvHL9yA89gwxEQqYSse2BlDoFwYi0fca1DwBTv+yzOo/j9nKB+LQXibed4MBrkjbHkswiY64kaxnP78Sgj+0YicbC9HMmAQS/uSSChRhmO8bL8swKX/c4FyTgyifaU3af3ZHHau4yjjGueKWi6XLORXiLtN4hIag8hJrFxP8Pg5KLjEwpSsTBb6iu/opoIClDQDzuN9RSGpx0QVfFikysI8OaB78JGCLaJGg2aWOoep8rYhUxdg3DAdK41ZhGIpt8q0WYCAgvQd2Pqu+eewOB+MPiJqBMxbuwubnvKDoq4Qu16Mw6ZPOhmEp/JzbNupRrM8AGHL2Q+x+dM6lNWzJ0XG8/EAUQjU5WxG4lus8hfVUR3y9ycj+VMuVQSMmy41FflFS3HLM9dh/f5cOa4G5UWaO+LLI8zzg7d1C9QfJiE1s5SlkqFhAuetF/H5Rbbu4YN5PMwAzTEm1l7chcIaAcpoJghfimASiCCIgYCj0hs16Vuw5zCrGE8VoODLw9izm1uuHaGaF2xQIToDFz9G5nf18jbD1hfzH/aCVVkWdu8+jBx+jlM5OLjrfRTU22L8TOkc9Rd4eJn4AXmjtli61ik1KnWNCE5MuHyUiRKd03M0ZdnYs20PDjNRwI/LSd+LHPbhbTvWFz5d1i4uTGxlY/e7mTjOr3kiE3v/foalQ4CP33g5Tte4hMyHStGEsk9365fV25mogonmC68pcD65Azs/YEJMvHYW0nak4YzGFl4PzwG/elOlmp2rGDW8WvmpTC6XApR2Oj6cF6YMz8eOnWlMhPL4TGSlbUPaNxrYjp6DOVxI3mLnPcdKe/h4+Bq0ECnZPR/cXIKCgp45VfOpDyzCWYANK/mG0/K2AaEPeMDm6nf4SGf/Z99UoHmYD5aGyQFM+ASMtEHd+Y/QMw/UdizOB6NPiBrl6hQkznaFdaMae3+zHuln5R0mKM1LhVpe55SfSxN/kLqMHcYVugbnT+RLATqUHzvPHnYmJlzGitveCv5kaVClviN2mQ4EuLFPHVhDuUTy12lfDiBiFI8hQGGqmfJsOtb/NhX57IemmLEKqS8Ykz8EQfQ7KplIaGt7l9HkI6/kJqsQ3eGt9/bWoOw8t7W0YzvFF142TSj6qkD//XirEmruDMzOYbZBhFXqpbXyehvVOJ6Zj5pb8qaIBqWVXPk4wqnLjlQaFOVyEaPD96WoZCJisJ0JC0sHXOA7lkmz2gJknTGoBTRnkKM2rBlkGotw/LTBvltlOP41K0MbVi4dLGHmYqS8GWXHzqCGCSx3T+nEZYXFqGdCdPxkJka1DPKFr/dgaM4VQK1XppbD53Iyn1AsVSrQfKkIxm0ooRgxDKj7wWDv6Y+wI6cCgpL7yLAl2AMa9Va8lyXvZ2d7j/vaWGCZMcSyfEj0CVGj3pKE1C+q0GKnROxbmxF7p5xfZUuPk53lBddncI5A8p8S4a9gD92J7Uh87Yi8gyCI/oymupJVkR2p13DnEEPRUINaA9cEx/u46d5W9JlJStJfYqbyfY5wMXcA19radt9GXWwc4T0tDPOjohG7ajVWr16D2GkdGlVMUAOWRQPq8RNv7nF0YnLFHFzhzC7XVFkmNp8Z0nrLxHxCP1bDmMdKfQOXIwKcdbSGZVSh2uiJ60WhIwyTT3z5NNRMJDpPmtqWT1sVE6GD6lFc2H1fGi3mjxzMm4h8oGiuQF66cfuKKmqcuL+oTaxIqKJWMiEj4Ls2Z+Kj0IzVb27qKd0ZAblPiBqu2I9sjsO6PYWoE5SIfnUX1j3Ws4aUuhv8hy9g7Ax/KUAHZbCS/RTY41cpWXHO1/LHzQYCD9RBGe/XwZfFOEyMTTQ42ALOX+VpbUHhTmlMm45LHFKMPG/cqXrb9lXwd+ZO1euxakOG1HRFEES/x2SFLNKKJsmftY1Wo1/3NVB/LvmCdFwM/GY6w1ha3EPw1LPxWBgyBS52rfjpQgFyjmYj57yhneL2Y/FkiJ2W7U00tXsyWIzx+yBxs0nr9FqDvEKm6BwnQCWay5j4nOjOxKMap037zZoNn0upS3jvJSZohEtHsXWHqSYjFUbdb4PmHy8a7A+FD29qUr+nY90pwEdfGTRJ9RCz8mFAHxE1EuoPWcXMnV9be+78Wvjv82IFrwh+DhuXBMFTPJEC/ks2Yt0cUdJA/e9CHojskjImKayhnJ+MCA8W0dkf0S/twibR0Vif7Mu84QrwDEhCCBfdziFY9UYyoid1N6VA+Vc8rdbwi0lFYqQ2rZ1jnlM1QRD9FUcnYx9KtvBycwSaa1Fl4N9iSFMTr7jt0Voj+YJ0XAz8ZizEN8gfzq1lyPrrG9jz/kEczJT8WcosH1qkB7SKIkJwcTfqmDzEhnddMoLCxaglyGskL/OrqOm2sDBh/RrtLn5IX61t7zYlOQwL8FYyVeMUAF+mabiDsDGLk6W0tHTuDSpaWeTu2DtMWGhEpo6Ci00zqplg1WOqA6ubm6ExTOzpBski5dBJt24L6CofxuhTooYjOr8yQdFj59cTb2LfCVHWwG/ZOnn8l31IXuYHxWCg7tgBbDshRcX+w8gTo/pj1fYDyHgnGbEz2CNYpUZpgxSljSNFYo8oa/aVksTHynknCRHjBbRoDJ2KQ5Asj53DF2kOKAH+z2vDUhEnRWxPq+CNefHatOosW9piMix0qiYIon/i5YtAw5ac0SEIYJVf04UilMhBpqhXl7AK0hY+D6rM/jh0dDS33cVZbPZBcw2qdL+mBnnBl70P7xylKPuB/XFXIVhyV2nHMRDBPib6YDlOQMBYAydiwV+Kf6UEakPByMrFvJJxxITp3gbuyey9H+QL21s1KNE98S01istuQhinhP9UJZx7wUFYS2OjgRlPl7ClmDUSTNDs0HP8NYZqjAtsmqtx0Wg8GwiGhSKKHVaPN3QilCyg03yYoM+JGhHu/Pr0emSU1KH5Bh/upztocGRDIlI+Uev96FrqypG7V7IItQdnY9PGNBRqI97UoKooA5sTD6ODb9zF7Ujdky/3kGKwuOUn9iL55aMd45qNTlobulamVQ0a/HTxCDat6tqpmiCI/klTvYCAuHgsfEgF1TQVAsNjsZp3C24qQ/ZnXUkaRm0OMk/VY7BXGBLioxE2QzqPakYY5sfE46nZuraKKtTw+nZMMCJ5vIfDEdipv00NSivYS9BehcjoMASK5w1HbEIk3Bt1Xri3nSbkf56P+luOUC1JQHRooFRWodGIX+GLVp5GY9S3wj3yacSGS/FVDy1E/H+GwB31KDiSo2MtqUa1+MHri/CHeR4jEeLDtt1CEP/bJKyOMuy6Xo9Wt4V4ehkrP37eacFYGJ+AECa46k9nIsegklCfKoLGbgJmTnbsFQdhLRr2kW2K0BEKwKAnk3Gkpidcb+jYNHX6I3x3lRWLcinaPWhUWPCgBxNBWv+bjl26LaWzfJiCZukmCILoU/DB98LheOp9pF32ReRsX7jwz99bN1FTlocv/pGDUp13PR/0LXZaPTJT0iCNTqPLYLhMewSPzJjAziHbD5qbUFNZhOPZWVBrRx/luAcjJjIQ7vxaNyuRvft95NfzwepioarLbBv7po1BzlBFPo6QMc4YzD+PNdU488UhnHGLRsw0oODdncjizTh88L1wx/Zthuk0y9dj1ejenVlMUpjJcBXmzw/EBGdBTMvN2jLkfXEYxaNi2HV00qI9P8vPG18JWDR3Jry46Z6VraamGMcPH0aBbplwBCXmL3kESjGeBmcObUOmhomaGH8MuXAYO9LVokN3W55Sj0N4PBwzvRyltLByKT52GIdPG2tYckbwiqcQ6MTOm8bO23MfYRE+Eq9SaXy+Kj5Fgs8wecOQq0U6vZUkJ2Lo9WjShzdjzRqpM2KskeMVemFa+DQJs+Dy49FOm7/UajVu3rwpb5kHiRqCIIg+hVbU7MXOz8yu1gkjuM9JQMzUVuS/vRPZoljpRKT1kM7FpSlkUYPj2LNb10LUc9zd3U1PldAPqOU97iqN9rnrlL7Z/EQQBEHc2wyyheDoCEeTiwDbTmswZ3h7CUBzNS4ZWl/6Cl7+4gB8veUgrEt1dXW3eg/1BXi6efq7A4kagiAIou/hEoyY+HjEm1xiENzJYDaCbxhUTDCY41R9t1BO84HQiw7CuvBu7j/8wL2o+x883RZ305eh5ieCIIg+BTU/WYRPJBICbFFWXobKq1wcCHCZpISvuyPwkxqH9hxGSZtm6APNT26BCFc2QTPMH4Fj7VH2rx1IMxzduBdhdTyGD5dnfO4HXLlyBZcvd3+wHrLUEARBEP2X2kuo4k1NfsEICw1jSyB8nFtRdioTe3frCpo+QusQeE0PQ+AYK1QeO3BbBQ2HCwQuFPoDPRU0HLLUEARBEMQAR6FQYMSIEd2aeuB2w31oeJNTXV3Px1wjUUMQBEEQ9wBWVlZwcXHpU72ieC8n7hTcXR8aQ0jUEARBEMQ9BB/HxsHBAYIgwM7OTpwN+05YcLhFhk99wEcK5gPrNTQ0WDwOTVeQqCEIgiAIYkBAjsIEQRAEQQwISNQQBEEQBDEgIFFDEARBEMSAgHxqCIIg+jG8Jwt3+OyLXXUJortwp2LuTMx7R1kC/QoIgiD6KVzQ3HfffSRoiAEHf6b5s21p9/O7ZKkR4Dl3PuZ788S2oOrrIzhyrBy3d1xFgiCIgYWnpycJGmJAwy025eXl8lZXAP8/e0Qh8gXiiywAAAAASUVORK5CYII=;" vertex="1" parent="WIyWlLk6GJQsqaUBKTNV-1">
          <mxGeometry x="-80.53999999999996" y="1043.5" width="399.29" height="147" as="geometry" />
        </mxCell>
        <mxCell id="oFJtpMSm3LVa0i9B1DGQ-10" value="Call Stack" style="endArrow=open;endSize=12;dashed=1;html=1;rounded=0;exitX=1;exitY=0.5;exitDx=0;exitDy=0;entryX=0;entryY=0.75;entryDx=0;entryDy=0;" edge="1" parent="WIyWlLk6GJQsqaUBKTNV-1" source="oFJtpMSm3LVa0i9B1DGQ-8" target="hR0UYlNkYb01HTM_rcTH-2">
          <mxGeometry width="160" relative="1" as="geometry">
            <mxPoint x="860" y="1240" as="sourcePoint" />
            <mxPoint x="1020" y="1240" as="targetPoint" />
          </mxGeometry>
        </mxCell>
        <mxCell id="oFJtpMSm3LVa0i9B1DGQ-11" value="&lt;div style=&quot;color: #cccccc;background-color: #1f1f1f;font-family: Consolas, &#39;Courier New&#39;, monospace;font-weight: normal;font-size: 14px;line-height: 19px;white-space: pre;&quot;&gt;&lt;div&gt;&lt;span style=&quot;color: #dcdcaa;&quot;&gt;@&lt;/span&gt;&lt;span style=&quot;color: #dcdcaa;&quot;&gt;dataclass&lt;/span&gt;&lt;/div&gt;&lt;div&gt;&lt;span style=&quot;color: #569cd6;&quot;&gt;class&lt;/span&gt;&lt;span style=&quot;color: #cccccc;&quot;&gt; &lt;/span&gt;&lt;span style=&quot;color: #4ec9b0;&quot;&gt;DistributedDataParallelConfig&lt;/span&gt;&lt;span style=&quot;color: #cccccc;&quot;&gt;: &lt;/span&gt;&lt;/div&gt;&lt;/div&gt;" style="text;whiteSpace=wrap;html=1;" vertex="1" parent="WIyWlLk6GJQsqaUBKTNV-1">
          <mxGeometry x="31.75" y="944" width="285" height="50" as="geometry" />
        </mxCell>
        <mxCell id="oFJtpMSm3LVa0i9B1DGQ-12" value="" style="endArrow=diamondThin;endFill=0;endSize=24;html=1;rounded=0;entryX=0;entryY=0.25;entryDx=0;entryDy=0;" edge="1" parent="WIyWlLk6GJQsqaUBKTNV-1" source="oFJtpMSm3LVa0i9B1DGQ-11" target="hR0UYlNkYb01HTM_rcTH-2">
          <mxGeometry width="160" relative="1" as="geometry">
            <mxPoint x="430" y="940" as="sourcePoint" />
            <mxPoint x="520" y="940" as="targetPoint" />
          </mxGeometry>
        </mxCell>
        <mxCell id="oFJtpMSm3LVa0i9B1DGQ-13" value="" style="endArrow=diamondThin;endFill=0;endSize=24;html=1;rounded=0;exitX=0.5;exitY=1;exitDx=0;exitDy=0;entryX=0.5;entryY=0;entryDx=0;entryDy=0;" edge="1" parent="WIyWlLk6GJQsqaUBKTNV-1" source="MWWJIXpzYKilEG-xOuEc-9" target="hR0UYlNkYb01HTM_rcTH-2">
          <mxGeometry width="160" relative="1" as="geometry">
            <mxPoint x="770" y="850" as="sourcePoint" />
            <mxPoint x="870" y="840" as="targetPoint" />
          </mxGeometry>
        </mxCell>
        <mxCell id="oFJtpMSm3LVa0i9B1DGQ-14" value="Extends" style="endArrow=block;endSize=16;endFill=0;html=1;rounded=0;exitX=0.5;exitY=1;exitDx=0;exitDy=0;entryX=0.5;entryY=0;entryDx=0;entryDy=0;" edge="1" parent="WIyWlLk6GJQsqaUBKTNV-1" source="hR0UYlNkYb01HTM_rcTH-2" target="hR0UYlNkYb01HTM_rcTH-7">
          <mxGeometry width="160" relative="1" as="geometry">
            <mxPoint x="890" y="1230" as="sourcePoint" />
            <mxPoint x="1050" y="1230" as="targetPoint" />
          </mxGeometry>
        </mxCell>
        <mxCell id="oFJtpMSm3LVa0i9B1DGQ-15" value="" style="endArrow=diamondThin;endFill=0;endSize=24;html=1;rounded=0;exitX=0;exitY=0.5;exitDx=0;exitDy=0;entryX=1;entryY=0.5;entryDx=0;entryDy=0;" edge="1" parent="WIyWlLk6GJQsqaUBKTNV-1" source="oFJtpMSm3LVa0i9B1DGQ-5" target="hR0UYlNkYb01HTM_rcTH-7">
          <mxGeometry width="160" relative="1" as="geometry">
            <mxPoint x="660" y="1500" as="sourcePoint" />
            <mxPoint x="820" y="1500" as="targetPoint" />
          </mxGeometry>
        </mxCell>
        <mxCell id="oFJtpMSm3LVa0i9B1DGQ-17" value="&lt;font style=&quot;font-size: 14px;&quot;&gt;n&lt;/font&gt;" style="endArrow=open;html=1;endSize=12;startArrow=diamondThin;startSize=14;startFill=0;edgeStyle=orthogonalEdgeStyle;align=left;verticalAlign=bottom;rounded=0;exitX=0;exitY=0.5;exitDx=0;exitDy=0;entryX=1;entryY=0.5;entryDx=0;entryDy=0;" edge="1" parent="WIyWlLk6GJQsqaUBKTNV-1" source="MWWJIXpzYKilEG-xOuEc-9" target="hR0UYlNkYb01HTM_rcTH-5">
          <mxGeometry x="-0.2032" y="-7" relative="1" as="geometry">
            <mxPoint x="440" y="470" as="sourcePoint" />
            <mxPoint x="600" y="470" as="targetPoint" />
            <mxPoint as="offset" />
          </mxGeometry>
        </mxCell>
        <mxCell id="oFJtpMSm3LVa0i9B1DGQ-19" value="&lt;p style=&quot;margin:0px;margin-top:4px;text-align:center;&quot;&gt;&lt;b&gt;Class &lt;font color=&quot;#ff0000&quot;&gt;_ParamAndGradBucketGroup&lt;/font&gt;&lt;/b&gt;&lt;/p&gt;&lt;hr size=&quot;1&quot; style=&quot;border-style:solid;&quot;&gt;&lt;div style=&quot;color: rgb(204, 204, 204); background-color: rgb(31, 31, 31); font-family: Consolas, &amp;quot;Courier New&amp;quot;, monospace; font-size: 14px; line-height: 19px; white-space: pre;&quot;&gt;&lt;div&gt;&lt;span style=&quot;color: #9cdcfe;&quot;&gt;self&lt;/span&gt;.&lt;span style=&quot;color: #9cdcfe;&quot;&gt;buckets&lt;/span&gt; &lt;span style=&quot;color: #d4d4d4;&quot;&gt;=&lt;/span&gt; &lt;span style=&quot;color: #9cdcfe;&quot;&gt;buckets&lt;/span&gt;&lt;/div&gt;&lt;div&gt;&lt;span style=&quot;color: #9cdcfe;&quot;&gt;self&lt;/span&gt;.&lt;span style=&quot;color: #9cdcfe;&quot;&gt;ddp_config&lt;/span&gt;&lt;/div&gt;&lt;div&gt;&lt;span style=&quot;color: #9cdcfe;&quot;&gt;self&lt;/span&gt;.&lt;span style=&quot;color: #9cdcfe;&quot;&gt;data_parallel_group&lt;/span&gt;&lt;/div&gt;&lt;div&gt;&lt;span style=&quot;color: #9cdcfe;&quot;&gt;self&lt;/span&gt;.&lt;span style=&quot;color: #9cdcfe;&quot;&gt;data_parallel_world_size&lt;/span&gt;&lt;/div&gt;&lt;div&gt;&lt;span style=&quot;color: #9cdcfe;&quot;&gt;self&lt;/span&gt;.&lt;span style=&quot;color: #9cdcfe;&quot;&gt;data_parallel_rank&lt;/span&gt;&lt;/div&gt;&lt;div&gt;&lt;div style=&quot;line-height: 19px;&quot;&gt;&lt;div&gt;&lt;span style=&quot;color: #9cdcfe;&quot;&gt;self&lt;/span&gt;.&lt;span style=&quot;color: #9cdcfe;&quot;&gt;param_to_bucket&lt;/span&gt; &lt;span style=&quot;color: #d4d4d4;&quot;&gt;=&lt;/span&gt; {}&lt;/div&gt;&lt;div&gt;&lt;span style=&quot;color: #9cdcfe;&quot;&gt;self&lt;/span&gt;.&lt;span style=&quot;color: #9cdcfe;&quot;&gt;params&lt;/span&gt; &lt;span style=&quot;color: #d4d4d4;&quot;&gt;=&lt;/span&gt; &lt;span style=&quot;color: #4ec9b0;&quot;&gt;set&lt;/span&gt;()&lt;/div&gt;&lt;div&gt;&lt;span style=&quot;color: rgb(86, 156, 214);&quot;&gt;self&lt;/span&gt;.next_param_gather_bucket_group &lt;span style=&quot;color: rgb(212, 212, 212);&quot;&gt;=&lt;/span&gt; &lt;span style=&quot;color: rgb(86, 156, 214);&quot;&gt;None&lt;/span&gt;&lt;br&gt;&lt;/div&gt;&lt;div&gt;&lt;div style=&quot;line-height: 19px;&quot;&gt;&lt;div&gt;&lt;span style=&quot;color: #569cd6;&quot;&gt;self&lt;/span&gt;.reset()&lt;/div&gt;&lt;div&gt;&lt;span style=&quot;color: #569cd6;&quot;&gt;self&lt;/span&gt;.param_gather_handle &lt;span style=&quot;color: #d4d4d4;&quot;&gt;=&lt;/span&gt; &lt;span style=&quot;color: #569cd6;&quot;&gt;None&lt;/span&gt;&lt;/div&gt;&lt;div&gt;&lt;span style=&quot;color: #569cd6;&quot;&gt;self&lt;/span&gt;.param_gather_dispatched &lt;span style=&quot;color: #d4d4d4;&quot;&gt;=&lt;/span&gt; &lt;span style=&quot;color: #569cd6;&quot;&gt;False&lt;/span&gt;&lt;/div&gt;&lt;div&gt;&lt;span style=&quot;color: #569cd6;&quot;&gt;self&lt;/span&gt;.grad_reduce_handle &lt;span style=&quot;color: #d4d4d4;&quot;&gt;=&lt;/span&gt; &lt;span style=&quot;color: #569cd6;&quot;&gt;None&lt;/span&gt;&lt;/div&gt;&lt;/div&gt;&lt;/div&gt;&lt;/div&gt;&lt;/div&gt;&lt;/div&gt;&lt;hr size=&quot;1&quot; style=&quot;border-style:solid;&quot;&gt;&lt;div style=&quot;color: rgb(204, 204, 204); background-color: rgb(31, 31, 31); font-family: Consolas, &amp;quot;Courier New&amp;quot;, monospace; font-size: 14px; line-height: 19px; white-space: pre;&quot;&gt;&lt;div&gt;&lt;span style=&quot;color: #569cd6;&quot;&gt;def&lt;/span&gt; &lt;span style=&quot;color: #dcdcaa;&quot;&gt;reset&lt;/span&gt;(&lt;span style=&quot;color: #9cdcfe;&quot;&gt;self&lt;/span&gt;):&lt;/div&gt;&lt;div&gt;&lt;div style=&quot;line-height: 19px;&quot;&gt;&lt;span style=&quot;color: #569cd6;&quot;&gt;def&lt;/span&gt; &lt;span style=&quot;color: #dcdcaa;&quot;&gt;check_for_nan_in_grad&lt;/span&gt;(&lt;span style=&quot;color: #9cdcfe;&quot;&gt;self&lt;/span&gt;):&lt;/div&gt;&lt;/div&gt;&lt;div style=&quot;line-height: 19px;&quot;&gt;&lt;div style=&quot;line-height: 19px;&quot;&gt;&lt;div style=&quot;line-height: 19px;&quot;&gt;&lt;span style=&quot;color: #569cd6;&quot;&gt;def&lt;/span&gt; &lt;span style=&quot;color: #dcdcaa;&quot;&gt;start_param_sync&lt;/span&gt;(&lt;span style=&quot;color: #9cdcfe;&quot;&gt;self&lt;/span&gt;, &lt;span style=&quot;color: #9cdcfe;&quot;&gt;force_sync&lt;/span&gt;: &lt;span style=&quot;color: #4ec9b0;&quot;&gt;bool&lt;/span&gt; &lt;span style=&quot;color: #d4d4d4;&quot;&gt;=&lt;/span&gt; &lt;span style=&quot;color: #569cd6;&quot;&gt;False&lt;/span&gt;)&lt;/div&gt;&lt;div style=&quot;line-height: 19px;&quot;&gt;&lt;div style=&quot;line-height: 19px;&quot;&gt;&lt;span style=&quot;color: #569cd6;&quot;&gt;def&lt;/span&gt; &lt;span style=&quot;color: #dcdcaa;&quot;&gt;finish_param_sync(...)&lt;/span&gt;&lt;/div&gt;&lt;div style=&quot;line-height: 19px;&quot;&gt;&lt;div style=&quot;line-height: 19px;&quot;&gt;&lt;span style=&quot;color: #569cd6;&quot;&gt;def&lt;/span&gt; &lt;span style=&quot;color: #dcdcaa;&quot;&gt;start_grad_sync&lt;/span&gt;(&lt;span style=&quot;color: #9cdcfe;&quot;&gt;self&lt;/span&gt;)&lt;/div&gt;&lt;div style=&quot;line-height: 19px;&quot;&gt;&lt;div style=&quot;line-height: 19px;&quot;&gt;&lt;span style=&quot;color: #569cd6;&quot;&gt;def&lt;/span&gt; &lt;span style=&quot;color: #dcdcaa;&quot;&gt;finish_grad_sync&lt;/span&gt;(&lt;span style=&quot;color: #9cdcfe;&quot;&gt;self&lt;/span&gt;)&lt;/div&gt;&lt;/div&gt;&lt;/div&gt;&lt;/div&gt;&lt;div style=&quot;line-height: 19px;&quot;&gt;&lt;div style=&quot;line-height: 19px;&quot;&gt;&lt;span style=&quot;color: #569cd6;&quot;&gt;def&lt;/span&gt; &lt;span style=&quot;color: #dcdcaa;&quot;&gt;register_grad_ready&lt;/span&gt;(&lt;span style=&quot;color: #9cdcfe;&quot;&gt;self&lt;/span&gt;, &lt;span style=&quot;color: #9cdcfe;&quot;&gt;param)&lt;/span&gt;&lt;/div&gt;&lt;/div&gt;&lt;div style=&quot;line-height: 19px;&quot;&gt;&lt;br&gt;&lt;/div&gt;&lt;/div&gt;&lt;/div&gt;&lt;/div&gt;" style="verticalAlign=top;align=left;overflow=fill;html=1;whiteSpace=wrap;" vertex="1" parent="WIyWlLk6GJQsqaUBKTNV-1">
          <mxGeometry x="-90" y="-83" width="430" height="440" as="geometry" />
        </mxCell>
        <mxCell id="oFJtpMSm3LVa0i9B1DGQ-21" value="&lt;font style=&quot;font-size: 14px;&quot;&gt;n&lt;/font&gt;" style="endArrow=open;html=1;endSize=12;startArrow=diamondThin;startSize=14;startFill=0;edgeStyle=orthogonalEdgeStyle;align=left;verticalAlign=bottom;rounded=0;exitX=0.5;exitY=1;exitDx=0;exitDy=0;entryX=0.5;entryY=0;entryDx=0;entryDy=0;" edge="1" parent="WIyWlLk6GJQsqaUBKTNV-1" source="oFJtpMSm3LVa0i9B1DGQ-19" target="hR0UYlNkYb01HTM_rcTH-5">
          <mxGeometry x="-0.3023" y="11" relative="1" as="geometry">
            <mxPoint x="210" y="370" as="sourcePoint" />
            <mxPoint x="370" y="370" as="targetPoint" />
            <mxPoint as="offset" />
          </mxGeometry>
        </mxCell>
        <mxCell id="oFJtpMSm3LVa0i9B1DGQ-22" value="&lt;font style=&quot;font-size: 14px;&quot;&gt;n&lt;/font&gt;" style="endArrow=open;html=1;endSize=12;startArrow=diamondThin;startSize=14;startFill=0;edgeStyle=orthogonalEdgeStyle;align=left;verticalAlign=bottom;rounded=0;exitX=0.5;exitY=1;exitDx=0;exitDy=0;entryX=0.5;entryY=0;entryDx=0;entryDy=0;" edge="1" parent="WIyWlLk6GJQsqaUBKTNV-1" source="MWWJIXpzYKilEG-xOuEc-0" target="MWWJIXpzYKilEG-xOuEc-9">
          <mxGeometry x="-0.2639" y="-17" relative="1" as="geometry">
            <mxPoint x="880" y="420" as="sourcePoint" />
            <mxPoint x="1040" y="420" as="targetPoint" />
            <mxPoint y="1" as="offset" />
          </mxGeometry>
        </mxCell>
      </root>
    </mxGraphModel>
  </diagram>
</mxfile>
